<?xml version="1.0" standalone="no"?>
<!DOCTYPE svg PUBLIC "-//W3C//DTD SVG 20010904//EN"
 "http://www.w3.org/TR/2001/REC-SVG-20010904/DTD/svg10.dtd">
<svg version="1.0" xmlns="http://www.w3.org/2000/svg"
 width="700.000000pt" height="700.000000pt" viewBox="0 0 700.000000 700.000000"
 preserveAspectRatio="xMidYMid meet">
<metadata>
Created by potrace 1.14, written by Peter Selinger 2001-2017
</metadata>
<g transform="translate(0.000000,700.000000) scale(0.100000,-0.100000)"
fill="#000000" stroke="none">
<path d="M3437 6684 c-1 -1 -54 -5 -118 -8 -64 -4 -127 -9 -140 -11 -13 -2
-62 -9 -109 -15 -116 -15 -329 -64 -464 -107 -372 -118 -731 -318 -1036 -578
-43 -37 -287 -281 -317 -317 -169 -206 -272 -361 -387 -580 -76 -145 -190
-435 -211 -536 -4 -18 -12 -35 -18 -37 -7 -2 -113 -5 -237 -7 l-225 -4 -50
-31 c-57 -36 -91 -82 -109 -145 -14 -47 -16 -702 -2 -813 17 -144 44 -326 50
-346 3 -8 7 -30 10 -49 8 -55 63 -259 100 -372 99 -301 241 -592 418 -857 48
-71 156 -220 168 -231 3 -3 38 -44 78 -92 95 -115 252 -272 382 -383 210 -181
324 -259 650 -445 226 -129 672 -286 955 -335 17 -3 37 -8 45 -10 8 -3 33 -7
55 -10 22 -3 51 -7 64 -10 36 -7 152 -19 296 -30 140 -12 418 -6 565 10 25 3
65 8 90 10 228 26 571 111 797 198 694 269 1263 721 1673 1332 67 99 190 307
190 320 0 4 9 19 19 33 10 15 20 32 21 37 2 6 20 47 41 93 22 46 39 85 39 88
0 2 9 23 19 47 10 23 24 56 29 72 6 17 20 55 31 85 24 62 88 272 94 310 3 14
12 52 20 85 8 33 18 76 21 95 3 19 8 46 11 60 3 14 7 41 10 60 3 19 7 45 9 57
3 12 8 53 12 90 3 37 8 79 11 93 2 14 6 192 10 395 6 407 4 426 -50 497 -30
39 -125 99 -152 97 -5 -1 -105 -1 -222 0 l-212 1 -12 43 c-160 599 -575 1196
-1099 1578 -72 53 -169 119 -174 119 -3 0 -29 15 -58 34 -145 91 -379 200
-576 265 -157 52 -413 112 -542 126 -30 4 -67 8 -81 10 -47 8 -376 24 -382 19z"/>
</g>
</svg>
