<svg xmlns="http://www.w3.org/2000/svg" xmlns:xlink="http://www.w3.org/1999/xlink" version="1.1" x="0px" y="0px" viewBox="0 0 100 100" style="enable-background:new 0 0 100 100;" xml:space="preserve"><g><path d="M49.9983826,56.6500626c-1.2749634,0-2.4921875,0.5320435-3.359375,1.4679565   c-0.866394,0.9359741-1.3031006,2.1906128-1.2054443,3.461792c0.0976563,1.2719116,0.7210693,2.4454346,1.7210693,3.2376099   v3.7844238c0,1.571106,1.2734375,2.8446045,2.843811,2.8446045c1.571106,0,2.8446045-1.2734375,2.8446045-2.8446045H52.842926   V64.817421c0.9992065-0.7921753,1.6234741-1.9656372,1.7211304-3.2376099   c0.0976563-1.2710571-0.3398438-2.5257568-1.2062378-3.461792C52.4914246,57.182106,51.2742004,56.6500626,49.9983826,56.6500626z    M51.1781921,63.2713394c-0.34375,0.1984253-0.5554199,0.5656128-0.5546265,0.9624634v4.368042   c0,0.3453369-0.2797241,0.6242065-0.625,0.6242065c-0.3445435,0-0.6242676-0.2788696-0.6242676-0.6242065H49.374115v-4.368042   c0.0007935-0.3968506-0.2109375-0.7640381-0.5546265-0.9624634c-0.9250488-0.5336304-1.3757935-1.6218872-1.0992432-2.6531982   c0.2765503-1.0304565,1.2109375-1.7476807,2.2781982-1.7476807c1.0679321,0,2.0023804,0.7171631,2.2789917,1.7476807   C52.5531921,61.6493912,52.1024475,62.737709,51.1781921,63.2713394z"></path><path d="M93.2355652,67.6876602c-0.9210815-0.6914063-2.117981-0.899231-3.218811-0.5601807   c-1.100769,0.3390503-1.9726563,1.1851807-2.3453979,2.2750244h-1.7609253   c-1.046875,0.0007935-2.0093994-0.5734253-2.5061646-1.4945679c-0.4343872-0.8046875-1.0789185-1.4772949-1.8648682-1.9453125   c-0.7859497-0.46875-1.6843872-0.7148438-2.6000366-0.7140503l-3.5789795,0.0195313   c0.0187378-0.4046631,0.0297241-0.8117065,0.0297241-1.2211304c0-0.6038818-0.0227051-1.2023315-0.0640869-1.7960815   l0.0007935,0.0007935c0.8616943-0.0906372,1.6835938-0.4117432,2.3789673-0.9296875   c0.6953125-0.5179443,1.2374878-1.2140503,1.5695801-2.0147705c0.4046631-0.9758301,1.3569946-1.6101685,2.4123535-1.6086426   h0.8937988c0.3554688,1.09375,1.2125244,1.9508057,2.3062134,2.3062134s2.2913818,0.1656494,3.2218018-0.5101318   s1.4812012-1.7562866,1.4812012-2.90625s-0.5507813-2.2304077-1.4812012-2.906189   c-0.930481-0.6757813-2.1282349-0.8656006-3.2218018-0.5101318c-1.09375,0.3554688-1.9508057,1.2124634-2.3062134,2.3061523   h-0.8929443c-0.9547119-0.0015259-1.8883057,0.2805176-2.6828003,0.8101807   c-0.7937622,0.5296631-1.4133301,1.2828369-1.7789307,2.1647949c-0.3679199,0.8875122-1.1953125,1.5-2.1516113,1.59375   c-0.4249878-2.6725464-1.2772827-5.2601929-2.5249634-7.6617432l5.6486816,0.0007935   c0.8890381-0.0039063,1.75-0.3101196,2.4421997-0.8679199c0.6921997-0.5585938,1.1741943-1.3352051,1.3671875-2.2032471   c0.1710815-0.7695313,0.8515625-1.3179321,1.6398315-1.3218384h4.852417   c0.3554688,1.09375,1.2132568,1.9515381,2.3070068,2.3070068c1.093689,0.3554077,2.2913818,0.1655884,3.2218018-0.5101929   c0.9304199-0.6765747,1.4804077-1.757019,1.4804077-2.9069824s-0.5499878-2.2304077-1.4804077-2.906189   c-0.930481-0.6757813-2.1282349-0.8656616-3.2218018-0.5101929c-1.09375,0.3554688-1.9515991,1.2133179-2.3070068,2.3070068   h-4.852417c-0.8890381,0.0039063-1.75,0.3101807-2.4421997,0.867981s-1.1741943,1.3343506-1.3671875,2.2023926   c-0.1710815,0.7695313-0.8515625,1.3187256-1.6398315,1.3218994h-6.9500122   c-0.5882568-0.8969116-1.2327881-1.7562866-1.928894-2.5726318v-17.711792c0-6.9024048-3.6820068-13.2803955-9.6602173-16.7312012   c-5.977356-3.4515991-13.3421631-3.4515991-19.3203735,0c-5.977417,3.4508057-9.6602173,9.8289795-9.6602173,16.7312012v17.711792   c-0.696106,0.8164063-1.3398438,1.6757813-1.9281006,2.5726318h-6.9500122   c-0.788269-0.0031738-1.4695435-0.5515747-1.6398315-1.321106c-0.1929932-0.867981-0.6749878-1.6445313-1.3671875-2.2032471   c-0.6921997-0.5578003-1.5531006-0.8640137-2.4421997-0.8679199h-4.8532104   c-0.3554688-1.09375-1.2125244-1.9508057-2.3062134-2.3062134s-2.2913818-0.1656494-3.2218018,0.5101318   s-1.4804688,1.7562866-1.4804688,2.90625s0.5500488,2.2304077,1.4804688,2.906189   c0.930481,0.6757813,2.1282349,0.8656006,3.2218018,0.5101318c1.0936279-0.3554077,1.9508057-1.2124634,2.3062134-2.3061523   h4.8532104c0.788269,0.0031128,1.46875,0.5523071,1.6398315,1.3218384c0.1921997,0.867981,0.6742554,1.6445313,1.366394,2.2023926   c0.6921997,0.5578613,1.553894,0.8640747,2.4429932,0.867981h5.6500244   c-1.2476807,2.4024048-2.1008301,4.9890137-2.5250244,7.6618042c-0.9562378-0.09375-1.7835693-0.7062378-2.1515503-1.59375   c-0.3656616-0.8820801-0.9851685-1.6351929-1.7797241-2.1647949c-0.7937622-0.5297241-1.727356-0.8117676-2.6820068-0.8093872   h-0.8937378c-0.3554688-1.09375-1.2132568-1.9515991-2.3070068-2.3070068   c-1.09375-0.3554688-2.2913818-0.1656494-3.2218018,0.5101318c-0.930481,0.6757813-1.4804688,1.7562866-1.4804688,2.90625   s0.5499878,2.2303467,1.4804688,2.9069824c0.930481,0.6757813,2.1282349,0.8656006,3.2218018,0.5101318   c1.0936279-0.3554077,1.9515381-1.2132568,2.3070068-2.3070068h0.8937378   c1.055481-0.0015259,2.0078125,0.633606,2.4124146,1.6086426c0.3320313,0.8007813,0.875,1.4968872,1.569519,2.0147705   c0.6953735,0.5180054,1.5172119,0.8390503,2.3796387,0.928894c-0.0414429,0.593811-0.0640869,1.1921997-0.0640869,1.7961426   c0,0.4093628,0.0109253,0.8164063,0.0297241,1.2210693l-3.5852051-0.0203247   c-0.9140625-0.0007324-1.8109741,0.2460938-2.5960083,0.7148438c-0.7844238,0.4679565-1.4281616,1.1398315-1.8617554,1.9445801   c-0.4968872,0.9210815-1.4593506,1.4945068-2.5061646,1.4937134h-1.7617188   c-0.3726807-1.0859375-1.2421875-1.9281006-2.3398438-2.265564c-1.0968628-0.3375244-2.2897949-0.1289063-3.2077637,0.5601807   C5.8636169,68.3861465,5.33078,69.4728775,5.3487854,70.621315c0.0179443,1.147644,0.5843506,2.2179565,1.5234375,2.8781738   c0.9390259,0.6601563,2.1375732,0.8312378,3.2233887,0.460144c1.086731-0.3718262,1.9296875-1.2406006,2.2680054-2.3375854   h1.7265625c0.9140625,0,1.8109131-0.2468872,2.5960083-0.7148438c0.7843628-0.4679565,1.4281006-1.1398315,1.8624878-1.944519   c0.4953003-0.9195557,1.4554443-1.492981,2.5-1.4945068l3.7954102,0.0210571v0.0007935   c0.3710938,2.7296143,1.1875,5.3803711,2.4171753,7.8453979h-2.1273804   c-1.2148438,0.0054932-2.3967896,0.4007568-3.3696289,1.1289063c-0.9734497,0.7280884-1.6859131,1.75-2.0335693,2.9147949   c-0.2109375,0.7054443-0.6430054,1.3242188-1.2328491,1.765625c-0.5898438,0.4406128-1.3054199,0.6804199-2.0421753,0.6835938   h-1.8773804c-0.3554077-1.09375-1.2124634-1.9515381-2.3061523-2.3070068   c-1.09375-0.3554077-2.2922363-0.1655884-3.2218018,0.5101929c-0.930481,0.6765137-1.4812622,1.757019-1.4812622,2.9069824   s0.5507813,2.2304077,1.4812622,2.906189c0.9296875,0.6757813,2.1281738,0.8656006,3.2218018,0.5101318   c1.0935669-0.3554688,1.9507446-1.2132568,2.3061523-2.3069458h1.8781738   c1.2147827-0.0046997,2.3959961-0.4008179,3.3695679-1.1281738c0.9726563-0.7280884,1.6859741-1.75,2.0336304-2.9140015   c0.2109375-0.7054443,0.6429443-1.3249512,1.2327881-1.765625c0.5890503-0.4413452,1.305481-0.6812134,2.0413818-0.6843262   h3.3774414c4.6413574,7.3945923,12.758606,11.8828125,21.4899902,11.8828125s16.8468018-4.4882202,21.4899902-11.8828125h3.3774414   c0.7359009,0.0031128,1.4515381,0.2429199,2.0413818,0.6843262c0.5898438,0.4406738,1.0218506,1.0601807,1.2327881,1.765625   c0.3476563,1.1640625,1.0609741,2.1860352,2.0336304,2.9140015c0.9726563,0.7281494,2.1546021,1.1234741,3.3696289,1.1289063   h1.8781128c0.3554688,1.09375,1.2125244,1.9508057,2.3062134,2.3062134s2.2913818,0.1656494,3.2218018-0.5101318   s1.4804688-1.7562866,1.4804688-2.90625s-0.5500488-2.2303467-1.4804688-2.906189   c-0.930481-0.6757813-2.1282349-0.8656006-3.2218018-0.5101318c-1.09375,0.3554688-1.9508057,1.2124634-2.3062134,2.3062134   h-1.8789063c-0.7359009-0.0023804-1.4523315-0.2421875-2.0413818-0.6836548   c-0.5898438-0.4406128-1.0219116-1.0601196-1.2328491-1.765625c-0.3476563-1.1647949-1.0609131-2.1859741-2.0335693-2.9140015   c-0.9734497-0.7280884-2.1546021-1.1242065-3.3704224-1.1288452h-2.1273804   c1.2296753-2.4656372,2.046814-5.1164551,2.4179688-7.8468018l3.7890015-0.0203247   c1.0461426-0.0007935,2.008606,0.5734253,2.5054321,1.4945068c0.4343262,0.803894,1.0773315,1.475769,1.8624878,1.9445801   c0.7851563,0.4679565,1.6820679,0.7147827,2.5960083,0.7140503h1.7265625   c0.3382568,1.1015625,1.1835938,1.9741821,2.2733765,2.3475952c1.0890503,0.3734131,2.2922363,0.2023315,3.234436-0.460144   c0.9429321-0.6625366,1.5109253-1.7359619,1.5288696-2.8876343C94.691803,69.4697037,94.1574402,68.3790665,93.2355652,67.6876602z    M85.9953308,55.2166519c0.555481,0,1.0562744,0.3343506,1.2687988,0.8476563   c0.211731,0.5125122,0.0945435,1.1031494-0.2976685,1.4953003c-0.3929443,0.3930054-0.9835815,0.5101929-1.4960938,0.2976685   c-0.5133057-0.2124634-0.8476563-0.7132568-0.8476563-1.2679443   C84.6235046,55.8315201,85.2375183,55.2174454,85.9953308,55.2166519z M91.9161072,45.5110855l0.000061,0.0007324   c0.5546875,0,1.0554199,0.3344116,1.2679443,0.8469238c0.2125244,0.5132446,0.0945435,1.1030884-0.2976685,1.4960938   c-0.3929443,0.3921509-0.9827881,0.5101318-1.4960938,0.2976685c-0.5125122-0.2125244-0.8468628-0.7133179-0.8468628-1.2680054   C90.5434875,46.1259537,91.1575623,45.511879,91.9161072,45.5110855z M8.084137,48.2564468   c-0.555481,0-1.055481-0.3344116-1.2679443-0.8476563C6.6036682,46.8962784,6.7208557,46.3056412,7.1138,45.9126968   c0.3922119-0.3922119,0.9828491-0.5093994,1.4961548-0.296875c0.5124512,0.2124634,0.8468628,0.7124634,0.8468628,1.2679443   C9.4560242,47.6415787,8.8419495,48.2556534,8.084137,48.2564468z M14.0037537,57.9610367   c-0.5546875,0-1.055481-0.3343506-1.2680054-0.8468628c-0.2124634-0.5132446-0.0944824-1.1038818,0.2976685-1.4960938   c0.3929443-0.3929443,0.9828491-0.5101318,1.4960938-0.2976685c0.5125122,0.2125244,0.8469238,0.7133179,0.8469238,1.2679443   C15.3764343,57.3462296,14.7615662,57.9602432,14.0037537,57.9610367z M8.9319153,71.9322281   c-0.5554199,0-1.0562134-0.3343506-1.2687378-0.8468628c-0.2125244-0.5133057-0.0945435-1.1030884,0.2976685-1.4960938   c0.3929443-0.3929443,0.9827881-0.5101929,1.4960938-0.2976685c0.5132446,0.2125244,0.8476563,0.7132568,0.8476563,1.2679443   C10.3038025,71.3173599,9.6897278,71.9314346,8.9319153,71.9322281z M11.1639099,84.3112564   c-0.5554199,0-1.0562134-0.3344116-1.2687378-0.8476563c-0.2125244-0.5125122-0.0945435-1.1031494,0.2976685-1.4961548   c0.3929443-0.3921509,0.9827881-0.5101318,1.4960938-0.2976074c0.5125122,0.2124634,0.8476563,0.7132568,0.8476563,1.2687378   C12.5350037,83.6955948,11.9217224,84.3096695,11.1639099,84.3112564z M88.835907,81.565834l0.000061-0.0007935v0.0007935   c0.5554199,0,1.0554199,0.3343506,1.2679443,0.8468628c0.2125244,0.5133057,0.0953369,1.1038818-0.296875,1.4960938   c-0.3929443,0.3930054-0.9835815,0.5101929-1.4960938,0.2976685c-0.5133057-0.2124634-0.8476563-0.7132568-0.8476563-1.2679443   C87.4640808,82.1807022,88.0780945,81.5666275,88.835907,81.565834z M32.8993225,29.8806534   c0.0054932-4.5336304,1.8085938-8.8796387,5.0140381-12.0859985c3.2061768-3.2054443,7.5523682-5.008606,12.0859985-5.0140381   c4.5343628,0.0054932,8.8803711,1.8085938,12.086792,5.0140381c3.2053833,3.2061768,5.008606,7.5523682,5.0139771,12.0859985   v15.4140015c-0.9351196-0.8531494-1.9320068-1.6359253-2.9835815-2.3414307V29.8806534   c0-5.0430298-2.6906128-9.7040405-7.0585938-12.2258301s-9.7492065-2.5217896-14.1171875,0   c-4.3672485,2.5217896-7.0586548,7.1828003-7.0586548,12.2258301v13.0725708   c-1.0507813,0.7055054-2.0475464,1.4882813-2.9827881,2.3414307V29.8806534z M61.8973694,29.8812637l-0.0004272,11.741394   c-7.4390259-3.9539795-16.3562012-3.9539795-23.7940063,0v-11.741394c0-4.25,2.2672119-8.1782227,5.9484253-10.3032227   s8.2163696-2.125,11.897583,0C59.629364,21.7030411,61.8973694,25.6312637,61.8973694,29.8812637z M66.375946,80.4240494   c-4.343811,4.343811-10.2335815,6.7875977-16.3765869,6.7946167c-6.1445923,0-12.038208-2.4414063-16.383606-6.7868042   s-6.7868042-10.2382202-6.7868042-16.383606s2.4414063-12.0390015,6.7868042-16.3843994s10.2390137-6.7860107,16.383606-6.7860107   c6.1453857,0,12.0390015,2.4406128,16.3843994,6.7860107s6.7860107,10.2390137,6.7860107,16.3843994   C73.1626892,70.1912613,70.7197571,76.0802383,66.375946,80.4240494z M92.0382385,71.5306168   c-0.3921509,0.3922119-0.9827881,0.5101929-1.4953003,0.2976685c-0.5133057-0.2124634-0.8476563-0.7132568-0.8476563-1.2687378   c0.0007935-0.7578125,0.6148071-1.3710938,1.3726196-1.3718872h0.000061   c0.5554199-0.0007935,1.0554199,0.3336182,1.2679443,0.8468628C92.5484314,70.5478287,92.4312439,71.1376724,92.0382385,71.5306168   z"></path></g></svg>