<svg xmlns:dc="http://purl.org/dc/elements/1.1/" xmlns:cc="http://creativecommons.org/ns#" xmlns:rdf="http://www.w3.org/1999/02/22-rdf-syntax-ns#" xmlns:svg="http://www.w3.org/2000/svg" xmlns="http://www.w3.org/2000/svg" xmlns:sodipodi="http://sodipodi.sourceforge.net/DTD/sodipodi-0.dtd" xmlns:inkscape="http://www.inkscape.org/namespaces/inkscape" version="1.1" x="0px" y="0px" viewBox="0 0 100 100"><g transform="translate(0,-952.36218)"><path style="text-indent:0;text-transform:none;direction:ltr;block-progression:tb;baseline-shift:baseline;color:#000000;enable-background:accumulate;" d="M 55.875 27.96875 A 1.0001 1.0001 0 0 0 55.03125 28.71875 L 43.03125 70.71875 A 1.0044998 1.0044998 0 0 0 44.96875 71.25 L 56.96875 29.25 A 1.0001 1.0001 0 0 0 55.875 27.96875 z M 33.9375 34.96875 A 1.0001 1.0001 0 0 0 33.5 35.125 L 9.5 49.125 A 1.0001 1.0001 0 0 0 9.5 50.84375 L 33.5 64.84375 A 1.0001 1.0001 0 1 0 34.5 63.125 L 11.96875 50 L 34.5 36.84375 A 1.0001 1.0001 0 0 0 33.9375 34.96875 z M 65.9375 34.96875 A 1.0001 1.0001 0 0 0 65.5 36.84375 L 88.03125 50 L 65.5 63.125 A 1.0001 1.0001 0 1 0 66.5 64.84375 L 90.5 50.84375 A 1.0001 1.0001 0 0 0 90.5 49.125 L 66.5 35.125 A 1.0001 1.0001 0 0 0 65.9375 34.96875 z " transform="translate(0,952.36218)" fill="#000000" fill-opacity="1" stroke="none" marker="none" visibility="visible" display="inline" overflow="visible"></path></g></svg>