<svg xmlns="http://www.w3.org/2000/svg" data-name="Layer 1" viewBox="0 0 100 100" x="0px" y="0px"><title>GDPR</title><path d="M58.55,38.33a1,1,0,0,1,.28,1.39l-10,15a1,1,0,0,1-.78.45h0a1,1,0,0,1-.77-.36l-5-6a1,1,0,0,1,.13-1.41,1,1,0,0,1,1.41.13l4.14,5,9.26-13.89A1,1,0,0,1,58.55,38.33ZM86,61.31a2.2,2.2,0,0,1,0,.36V71c0,3-5,4.77-10,5v6c0,3.25-5.67,5-11,5a21.17,21.17,0,0,1-7.28-1.2,75.4,75.4,0,0,1-7.68,5,1,1,0,0,1-1,0C6.82,66.76,18.41,22.18,18.54,21.74a1,1,0,0,1,.59-.67l30-12a1,1,0,0,1,.74,0l30,12a1,1,0,0,1,.59.67,65.47,65.47,0,0,1,.77,25.41C84,48,86,49.37,86,51.31a2.2,2.2,0,0,1,0,.36v9.44A1,1,0,0,1,86,61.31ZM73.41,27.1,49.5,17.54,25.59,27.1c-1.47,9-3.38,36.89,23.91,54.7q2.34-1.53,4.46-3.2V62.31a1,1,0,0,1,.08-.4c.42-2.79,5.14-4.38,9.92-4.58v-6a1,1,0,0,1,.08-.4c.4-2.67,4.73-4.23,9.28-4.54A59.9,59.9,0,0,0,73.41,27.1ZM74,62.2c-.19-1.22-3.64-2.89-9-2.89s-9,1.77-9,3,3.51,3,9,3c5.16,0,8.56-1.57,9-2.77v-.23S74,62.24,74,62.2ZM56,72.11a1,1,0,0,1,0,.2c0,1.22,3.51,3,9,3,5.16,0,8.56-1.57,9-2.77V65.29c-2.13,1.32-5.61,2-9,2s-6.92-.72-9-2.07Zm20-7.82c4.62-.18,7.63-1.63,8-2.75V54.29c-2.13,1.32-5.61,2-9,2s-6.92-.72-9-2.07v3.08c5,.2,10,1.93,10,5a2.2,2.2,0,0,1,0,.36Zm4-15.44h0A21.06,21.06,0,0,0,75,48.31c-5.49,0-9,1.77-9,3s3.51,3,9,3c5.16,0,8.56-1.57,9-2.77v-.23s0-.07,0-.11C83.86,50.42,82.39,49.45,79.94,48.85Zm-24.24,36A3.47,3.47,0,0,1,54,82V81.1C52.7,82,51.4,83,50,83.83a1,1,0,0,1-1.08,0C19.48,65,22.18,35,23.71,26.21a1,1,0,0,1,.62-.76l24.8-9.92a1,1,0,0,1,.74,0l24.8,9.92a1,1,0,0,1,.62.76,61.82,61.82,0,0,1,.07,20.1,24.11,24.11,0,0,1,3.92.38,66.13,66.13,0,0,0-.63-23.95L49.5,11.08,20.35,22.74c-1.1,4.76-8.78,44.05,29.15,66.11C51.67,87.58,53.75,86.23,55.7,84.81ZM74,82V75.29c-2.13,1.32-5.61,2-9,2s-6.92-.72-9-2.07V82c0,.5.59,1.09,1.65,1.61a1,1,0,0,1,.79.35A19,19,0,0,0,65,85C70.45,85,74,83.25,74,82ZM84,71V64.29a17.33,17.33,0,0,1-8,2v5.82a1,1,0,0,1,0,.2,2.2,2.2,0,0,1,0,.36V74C80.88,73.81,84,72.18,84,71Z"></path></svg>