<svg xmlns="http://www.w3.org/2000/svg" viewBox="0 0 130 130"><path d="M125.188 5.996H4.812A4.888 4.888 0 0 0-.071 10.88v87.533a4.888 4.888 0 0 0 4.883 4.883h46.711c.072 2.445-.866 4.936-2.786 7.423h-.859a5.695 5.695 0 0 0-5.688 5.688v6.598a1 1 0 0 0 1 1h43.62a1 1 0 0 0 1-1v-6.598a5.695 5.695 0 0 0-5.688-5.688h-.835c-1.76-2.482-2.688-4.973-2.755-7.423h46.656a4.888 4.888 0 0 0 4.883-4.883V10.88a4.888 4.888 0 0 0-4.883-4.883zM82.122 112.718a3.692 3.692 0 0 1 3.688 3.688v5.598H44.19v-5.598a3.692 3.692 0 0 1 3.688-3.688zm-3.245-2h-27.67c1.61-2.453 2.39-4.94 2.328-7.423h22.989c.056 2.48.845 4.967 2.353 7.423m49.194-12.306a2.886 2.886 0 0 1-2.883 2.883H4.812a2.886 2.886 0 0 1-2.883-2.883V85.005h126.142zm0-15.407H1.929V10.879a2.886 2.886 0 0 1 2.883-2.883h120.376a2.886 2.886 0 0 1 2.883 2.883z" class="st0"/><path d="M12.322 94.15h8.167a1 1 0 1 0 0-2h-8.167a1 1 0 1 0 0 2M99.36 24.34c-4.502 0-8.165 3.664-8.165 8.167 0 1.884.647 3.616 1.723 5L81.014 50.553a8.129 8.129 0 0 0-10.147.22L60.388 38.91a8.114 8.114 0 0 0 1.694-4.959c0-4.503-3.665-8.167-8.167-8.167s-8.167 3.664-8.167 8.167A8.1 8.1 0 0 0 47 38.276L35.354 51.838a8.115 8.115 0 0 0-4.716-1.51c-4.503 0-8.166 3.662-8.166 8.165s3.663 8.167 8.166 8.167 8.167-3.664 8.167-8.167a8.124 8.124 0 0 0-1.972-5.306l11.45-13.337a8.132 8.132 0 0 0 5.632 2.266 8.121 8.121 0 0 0 5.069-1.775l10.512 11.905a8.112 8.112 0 0 0-1.578 4.805c0 4.503 3.665 8.167 8.167 8.167s8.167-3.664 8.167-8.167c0-1.93-.676-3.704-1.8-5.103L94.33 38.927a8.117 8.117 0 0 0 5.03 1.747c4.504 0 8.168-3.664 8.168-8.167s-3.664-8.166-8.167-8.166zM30.639 64.66c-3.4 0-6.166-2.766-6.166-6.167s2.766-6.166 6.166-6.166 6.167 2.766 6.167 6.166-2.766 6.167-6.167 6.167m23.277-24.544c-3.4 0-6.167-2.765-6.167-6.166s2.766-6.167 6.167-6.167 6.167 2.767 6.167 6.167-2.767 6.166-6.167 6.166m22.17 23.102c-3.4 0-6.167-2.767-6.167-6.167s2.767-6.167 6.167-6.167 6.167 2.766 6.167 6.167-2.766 6.167-6.167 6.167m23.276-24.544c-3.4 0-6.166-2.767-6.166-6.167s2.765-6.166 6.166-6.166 6.167 2.765 6.167 6.166-2.767 6.167-6.167 6.167" class="st0"/></svg>