<svg xmlns="http://www.w3.org/2000/svg" xmlns:xlink="http://www.w3.org/1999/xlink" version="1.1" x="0px" y="0px" viewBox="0 0 130 130" style="enable-background:new 0 0 130 130;" xml:space="preserve"><g><path class="st0" d="M125.1879883,5.9960938H4.8120117c-2.6923828,0-4.8828125,2.1904297-4.8828125,4.8828125v87.5332031   c0,2.6923828,2.1904297,4.8828125,4.8828125,4.8828125h46.7111816c0.0717773,2.4455566-0.8659668,4.9365234-2.7858887,7.4228516   H47.878418c-3.1367188,0-5.6884766,2.5517578-5.6884766,5.6884766v6.5976563c0,0.5527344,0.4472656,1,1,1h43.6201172   c0.5527344,0,1-0.4472656,1-1V116.40625c0-3.1367188-2.5517578-5.6884766-5.6884766-5.6884766h-0.8344727   c-1.7597656-2.4819336-2.6884766-4.9724121-2.7553711-7.4228516h46.65625c2.6923828,0,4.8828125-2.1904297,4.8828125-4.8828125   V10.8789063C130.0708008,8.1865234,127.8803711,5.9960938,125.1879883,5.9960938z M82.121582,112.7177734   c2.0341797,0,3.6884766,1.6542969,3.6884766,3.6884766v5.5976563H44.1899414V116.40625   c0-2.0341797,1.6542969-3.6884766,3.6884766-3.6884766h1.3564453h31.5302734H82.121582z M78.8774414,110.7177734H51.2075195   c1.609375-2.453125,2.3896484-4.9394531,2.3271484-7.4228516h22.9892578   C76.5795898,105.7744141,77.3686523,108.2617188,78.8774414,110.7177734z M128.0708008,98.4121094   c0,1.5898438-1.2929688,2.8828125-2.8828125,2.8828125H77.543457H52.456543H4.8120117   c-1.5898438,0-2.8828125-1.2929688-2.8828125-2.8828125V85.0048828h126.1416016V98.4121094z M128.0708008,83.0048828H1.9291992   V10.8789063c0-1.5898438,1.2929688-2.8828125,2.8828125-2.8828125h120.3759766   c1.5898438,0,2.8828125,1.2929688,2.8828125,2.8828125V83.0048828z"></path><path class="st0" d="M12.3217773,94.1494141h8.1669922c0.5527344,0,1-0.4472656,1-1s-0.4472656-1-1-1h-8.1669922   c-0.5527344,0-1,0.4472656-1,1S11.769043,94.1494141,12.3217773,94.1494141z"></path><path class="st0" d="M99.3608398,24.3408203c-4.5029297,0-8.1660156,3.6630859-8.1660156,8.1660156   c0,1.8837891,0.6473389,3.6157227,1.7229004,4.9992676L81.0144043,50.5544434   c-1.3718262-1.043457-3.0765381-1.6706543-4.9289551-1.6706543c-1.9829102,0-3.8022461,0.7119141-5.2185059,1.8916016   L60.3884277,38.9086914c1.0571289-1.3764648,1.6931152-3.0927734,1.6931152-4.9584961   c0-4.5029297-3.6640625-8.1669922-8.1669922-8.1669922s-8.1669922,3.6640625-8.1669922,8.1669922   c0,1.5893555,0.463623,3.0688477,1.2521973,4.3249512L35.3544922,51.8383789   c-1.3337402-0.9477539-2.9589844-1.5112305-4.7163086-1.5112305c-4.5029297,0-8.1660156,3.6630859-8.1660156,8.1660156   s3.6630859,8.1669922,8.1660156,8.1669922s8.1669922-3.6640625,8.1669922-8.1669922   c0-2.0258789-0.7460938-3.8776855-1.9720459-5.3066406l11.4504395-13.3364258   c1.4667969,1.4001465,3.447998,2.2661133,5.6309814,2.2661133c1.9151611,0,3.6748047-0.6672363,5.0692139-1.7753906   l10.5123291,11.9052734c-0.9873047,1.3500977-1.5776367,3.0078125-1.5776367,4.8046875   c0,4.5029297,3.6640625,8.1669922,8.1669922,8.1669922s8.1669922-3.6640625,8.1669922-8.1669922   c0-1.9304199-0.6767578-3.7036133-1.8010254-5.1030273l11.878418-13.0212402   c1.3881836,1.0905762,3.1328125,1.7473145,5.0310059,1.7473145c4.5029297,0,8.1669922-3.6640625,8.1669922-8.1669922   S103.8637695,24.3408203,99.3608398,24.3408203z M30.6381836,64.6601563c-3.4003906,0-6.1660156-2.7666016-6.1660156-6.1669922   s2.765625-6.1660156,6.1660156-6.1660156s6.1669922,2.765625,6.1669922,6.1660156S34.0385742,64.6601563,30.6381836,64.6601563z    M53.9145508,40.1162109c-3.4003906,0-6.1669922-2.765625-6.1669922-6.1660156s2.7666016-6.1669922,6.1669922-6.1669922   s6.1669922,2.7666016,6.1669922,6.1669922S57.3149414,40.1162109,53.9145508,40.1162109z M76.0854492,63.2177734   c-3.4003906,0-6.1669922-2.7666016-6.1669922-6.1669922s2.7666016-6.1669922,6.1669922-6.1669922   s6.1669922,2.7666016,6.1669922,6.1669922S79.4858398,63.2177734,76.0854492,63.2177734z M99.3608398,38.6738281   c-3.4003906,0-6.1660156-2.7666016-6.1660156-6.1669922s2.765625-6.1660156,6.1660156-6.1660156   s6.1669922,2.765625,6.1669922,6.1660156S102.7612305,38.6738281,99.3608398,38.6738281z"></path></g></svg>