<svg id="Layer_2" enable-background="new 0 0 32 32" height="512" viewBox="0 0 32 32" width="512" xmlns="http://www.w3.org/2000/svg"><g><path d="m22.99988 26.89563c2.66406 0 4.83203-2.16699 4.83203-4.83105s-2.16797-4.83203-4.83203-4.83203c-1.8277 0-3.40253 1.03229-4.22339 2.5332h-5.55359c-.82068-1.50092-2.39532-2.5332-4.22302-2.5332-2.66406 0-4.83154 2.16797-4.83154 4.83203s2.16748 4.83105 4.83154 4.83105 4.83154-2.16699 4.83154-4.83105c0-.10229-.02393-.19806-.03021-.29883h4.39685c-.00629.10077-.03021.19653-.03021.29883 0 2.66406 2.16797 4.83105 4.83203 4.83105zm0-7.66309c1.56152 0 2.83203 1.27051 2.83203 2.83203s-1.27051 2.83105-2.83203 2.83105-2.83203-1.26953-2.83203-2.83105 1.2705-2.83203 2.83203-2.83203zm-14 5.66309c-1.56152 0-2.83154-1.26953-2.83154-2.83105s1.27002-2.83203 2.83154-2.83203 2.83154 1.27051 2.83154 2.83203-1.27002 2.83105-2.83154 2.83105z"/><path d="m30.27429 14.7843c-1.57202-.44916-3.1601-.81604-4.75726-1.11395l-1.53717-7.75928c-.06-.28998-.23999-.53998-.48999-.67999-.26001-.14001-.57001-.15997-.83997-.06-4.29004 1.62-9.01001 1.62-13.30005 0-.26995-.10998-.57995-.08002-.82995.06-.26001.14001-.44.39001-.5.67999l-1.53717 7.75928c-1.59735.29791-3.18555.66479-4.75775 1.11395-.53076.15234-.83838.70605-.68652 1.23633.15186.53125.70508.83301 1.23633.6875 8.97949-2.56641 18.47119-2.56641 27.45068 0 .0918.02539.18359.03809.27441.03809.43555 0 .83594-.28613.96191-.72559.15137-.53027-.15625-1.08398-.6875-1.23633zm-21.68689-1.46527 1.17249-5.88794c4.06 1.27997 8.41998 1.27997 12.47998 0l1.16943 5.88745c-4.91638-.70923-9.90533-.7091-14.8219.00049z"/></g></svg>