<svg xmlns="http://www.w3.org/2000/svg" viewBox="0 0 64 64"><path d="M32 62A30 30 0 102 32a30 30 0 0030 30zm0-58A28 28 0 114 32 28 28 0 0132 4z"/><path d="M13.4 49.74a1 1 0 00.71-.29l35.34-35.31a1 1 0 000-1.45 26 26 0 00-36.76 36.72 1 1 0 00.71.33zm15.6-18l-8 8V20.5a1.5 1.5 0 013 0V32h2V17.5a1.5 1.5 0 013 0zm5-14.24v9.26l-3 3V14.5a1.5 1.5 0 013 0zm5 4.26l-3 3V17.5a1.5 1.5 0 013 0zM32 8a24 24 0 0115.27 5.48L41 19.76V17.5a3.47 3.47 0 00-5-3.14A3.53 3.53 0 0035 12a3.5 3.5 0 00-6 2.34 3.36 3.36 0 00-1.5-.34 3.5 3.5 0 00-3.5 3.36 3.36 3.36 0 00-1.5-.36 3.5 3.5 0 00-3.5 3.5v21.26l-5.52 5.51A24 24 0 0132 8zM15.63 50.78a1 1 0 00.08 1.49 26 26 0 0036.56-36.56 1 1 0 00-1.49-.08L20.45 46zM39 30.24V38a1 1 0 00.55.89 1 1 0 001.05-.09l5.83-4.37a1.7 1.7 0 012.39.33 1.74 1.74 0 01.35 1 1.72 1.72 0 01-.46 1.24L38.23 48.16A9 9 0 0131.67 51H30a8.94 8.94 0 01-7.57-4.18zM30 53h1.67a11 11 0 008-3.48l10.5-11.17A3.72 3.72 0 0048 32.12a3.66 3.66 0 00-2.75.71L41 36v-7.76l10.39-10.39a24 24 0 01-33.54 33.54L21 48.27A11 11 0 0030 53z"/></svg>