<svg xmlns="http://www.w3.org/2000/svg" viewBox="0 0 512 512"><path d="m503.574 104.435-27.586 171.674c-1.151 7.109-6.158 12.917-13.017 15.17-6.859 2.203-14.319.45-19.425-4.656l-50.766-50.816-188.346 188.345c-7.46 7.46-19.575 7.46-27.035 0L13.785 260.489c-7.46-7.46-7.46-19.575 0-27.035l15.52-15.57c7.46-7.46 19.626-7.46 27.035 0L190.916 352.46l159.258-159.258-50.666-50.666c-5.106-5.107-6.909-12.566-4.656-19.425 2.203-6.859 8.011-11.815 15.12-12.967l171.674-27.636c6.158-1.001 12.166 1.001 16.572 5.357 4.355 4.404 6.307 10.462 5.356 16.57"/></svg>