<svg xmlns="http://www.w3.org/2000/svg" xmlns:xlink="http://www.w3.org/1999/xlink" version="1.1" x="0px" y="0px"
     viewBox="0 0 34 34" enable-background="new 0 0 34 34" xml:space="preserve"><g><path d="M28.31,28.31688c6.25-6.25,6.25-16.38,0-22.63s-16.37-6.25-22.62,0c-6.25,6.26001-6.25,16.38,0,22.63   C11.92999,34.55687,22.06,34.56688,28.31,28.31688z M9.29004,17.3369c0.38995-0.39001,1.02997-0.39001,1.41998,0l3.26001,3.25   l9.32001-9.29999c0.39996-0.38,1.02997-0.38,1.41998,0.00995c0.39001,0.39001,0.39001,1.02002,0,1.41003l-10.04004,10   c-0.18994,0.20001-0.44995,0.28998-0.69995,0.28998c-0.26001,0-0.51001-0.08997-0.71002-0.28998l-3.96997-3.95001   C8.90002,18.36687,8.90002,17.72691,9.29004,17.3369z"></path></g></svg>
