<svg xmlns="http://www.w3.org/2000/svg" viewBox="0 0 512 512"><path d="M176 160h96v16h-96zm112 0h16v16h-16zm32 0h16v16h-16zm-144 64h96v16h-96zm112 0h16v16h-16zm32 0h16v16h-16zm-144 64h96v16h-96zm112 0h16v16h-16zm32 0h16v16h-16z"/><path d="M464 344a32.057 32.057 0 0 0-30.987 24H344v-32a24.028 24.028 0 0 0 24-24v-24h48a80 80 0 1 0-13.044-158.939A152.031 152.031 0 0 0 121.841 96.5 97.271 97.271 0 0 0 112 96a96 96 0 0 0 0 192h32v24a24.028 24.028 0 0 0 24 24v32H78.987a32 32 0 1 0 0 16H176a8 8 0 0 0 8-8v-40h16v64h-64a8 8 0 0 0-8 8v25.013a32 32 0 1 0 16 0V416h64a8 8 0 0 0 8-8v-72h32v81.013a32 32 0 1 0 16 0V336h32v72a8 8 0 0 0 8 8h64v17.013a32 32 0 1 0 16 0V408a8 8 0 0 0-8-8h-64v-64h16v40a8 8 0 0 0 8 8h97.013A32 32 0 1 0 464 344zM48 392a16 16 0 1 1 16-16 16.019 16.019 0 0 1-16 16zm104 72a16 16 0 1 1-16-16 16.019 16.019 0 0 1 16 16zm120-16a16 16 0 1 1-16-16 16.019 16.019 0 0 1 16 16zm120 16a16 16 0 1 1-16-16 16.019 16.019 0 0 1 16 16zM160 184v-32a8.009 8.009 0 0 1 8-8h176a8.009 8.009 0 0 1 8 8v32a8.009 8.009 0 0 1-8 8H168a8.009 8.009 0 0 1-8-8zm0 64v-32a8.009 8.009 0 0 1 8-8h176a8.009 8.009 0 0 1 8 8v32a8.009 8.009 0 0 1-8 8H168a8.009 8.009 0 0 1-8-8zM32 192a80.091 80.091 0 0 1 80-80 80.944 80.944 0 0 1 13.1 1.064 7.994 7.994 0 0 0 8.5-4.4 136.036 136.036 0 0 1 255.55 31.514 8 8 0 0 0 9.959 6.085A64 64 0 1 1 416 272h-49.376a24.015 24.015 0 0 0-4.755-8A23.9 23.9 0 0 0 368 248v-32a23.9 23.9 0 0 0-6.131-16A23.9 23.9 0 0 0 368 184v-32a24.028 24.028 0 0 0-24-24H168a24.028 24.028 0 0 0-24 24v32a23.9 23.9 0 0 0 6.131 16A23.9 23.9 0 0 0 144 216v32a23.9 23.9 0 0 0 6.131 16 24.015 24.015 0 0 0-4.755 8H112a80.091 80.091 0 0 1-80-80zm128 120v-32a8.009 8.009 0 0 1 8-8h176a8.009 8.009 0 0 1 8 8v32a8.009 8.009 0 0 1-8 8H168a8.009 8.009 0 0 1-8-8zm304 80a16 16 0 1 1 16-16 16.019 16.019 0 0 1-16 16z"/></svg>