<svg viewBox="0 0 512 512" xmlns="http://www.w3.org/2000/svg"><g id="Outline"><g id="Hosting-server-cloud"><path d="m176 160h96v16h-96z"/><path d="m288 160h16v16h-16z"/><path d="m320 160h16v16h-16z"/><path d="m176 224h96v16h-96z"/><path d="m288 224h16v16h-16z"/><path d="m320 224h16v16h-16z"/><path d="m176 288h96v16h-96z"/><path d="m288 288h16v16h-16z"/><path d="m320 288h16v16h-16z"/><path d="m464 344a32.057 32.057 0 0 0 -30.987 24h-89.013v-32a24.028 24.028 0 0 0 24-24v-24h48a80 80 0 1 0 -13.044-158.939 152.031 152.031 0 0 0 -281.115-32.561 97.271 97.271 0 0 0 -9.841-.5 96 96 0 0 0 0 192h32v24a24.028 24.028 0 0 0 24 24v32h-89.013a32 32 0 1 0 0 16h97.013a8 8 0 0 0 8-8v-40h16v64h-64a8 8 0 0 0 -8 8v25.013a32 32 0 1 0 16 0v-17.013h64a8 8 0 0 0 8-8v-72h32v81.013a32 32 0 1 0 16 0v-81.013h32v72a8 8 0 0 0 8 8h64v17.013a32 32 0 1 0 16 0v-25.013a8 8 0 0 0 -8-8h-64v-64h16v40a8 8 0 0 0 8 8h97.013a32 32 0 1 0 30.987-40zm-416 48a16 16 0 1 1 16-16 16.019 16.019 0 0 1 -16 16zm104 72a16 16 0 1 1 -16-16 16.019 16.019 0 0 1 16 16zm120-16a16 16 0 1 1 -16-16 16.019 16.019 0 0 1 16 16zm120 16a16 16 0 1 1 -16-16 16.019 16.019 0 0 1 16 16zm-232-280v-32a8.009 8.009 0 0 1 8-8h176a8.009 8.009 0 0 1 8 8v32a8.009 8.009 0 0 1 -8 8h-176a8.009 8.009 0 0 1 -8-8zm0 64v-32a8.009 8.009 0 0 1 8-8h176a8.009 8.009 0 0 1 8 8v32a8.009 8.009 0 0 1 -8 8h-176a8.009 8.009 0 0 1 -8-8zm-128-56a80.091 80.091 0 0 1 80-80 80.944 80.944 0 0 1 13.1 1.064 7.994 7.994 0 0 0 8.5-4.4 136.036 136.036 0 0 1 255.55 31.514 8 8 0 0 0 9.959 6.085 64 64 0 1 1 16.891 125.737h-49.376a24.015 24.015 0 0 0 -4.755-8 23.9 23.9 0 0 0 6.131-16v-32a23.9 23.9 0 0 0 -6.131-16 23.9 23.9 0 0 0 6.131-16v-32a24.028 24.028 0 0 0 -24-24h-176a24.028 24.028 0 0 0 -24 24v32a23.9 23.9 0 0 0 6.131 16 23.9 23.9 0 0 0 -6.131 16v32a23.9 23.9 0 0 0 6.131 16 24.015 24.015 0 0 0 -4.755 8h-33.376a80.091 80.091 0 0 1 -80-80zm128 120v-32a8.009 8.009 0 0 1 8-8h176a8.009 8.009 0 0 1 8 8v32a8.009 8.009 0 0 1 -8 8h-176a8.009 8.009 0 0 1 -8-8zm304 80a16 16 0 1 1 16-16 16.019 16.019 0 0 1 -16 16z"/></g></g></svg>