<svg xmlns="http://www.w3.org/2000/svg" viewBox="0 0 128 128"><circle cx="116" cy="12" r="2"/><circle cx="108" cy="12" r="2"/><circle cx="100" cy="12" r="2"/><path d="M121 0H7a7 7 0 0 0-7 7v114a7 7 0 0 0 7 7h114a7 7 0 0 0 7-7V7a7 7 0 0 0-7-7zM7 4h114a3 3 0 0 1 3 3v13H4V7a3 3 0 0 1 3-3zm114 120H7a3 3 0 0 1-3-3V24h120v97a3 3 0 0 1-3 3z"/><path d="M41.88 55.41a2 2 0 0 0-2.82 0L22.59 71.88a2 2 0 0 0 0 2.83l16.47 16.47a2 2 0 0 0 2.82-2.83L26.83 73.29l15.05-15.05a2 2 0 0 0 0-2.83zm34.71-9.82a2 2 0 0 0-2.65 1L50.41 98.35a2 2 0 1 0 3.65 1.65l23.53-51.76a2 2 0 0 0-1-2.65zm12.35 9.82a2 2 0 0 0-2.82 2.83l15 15.05-15 15.06a2 2 0 0 0 2.82 2.83l16.47-16.47a2 2 0 0 0 0-2.83z"/></svg>