<svg xmlns="http://www.w3.org/2000/svg" xml:space="preserve" viewBox="0 0 682.667 682.667"><defs><clipPath id="a" clipPathUnits="userSpaceOnUse"><path d="M0 512h512V0H0Z"/></clipPath></defs><g clip-path="url(#a)" transform="matrix(1.33333 0 0 -1.33333 0 682.667)"><path d="M0 0c-17.429 17.428-28.371 38.884-32.834 61.371a34.724 34.724 0 0 1-27.321 27.32c-22.487 4.463-43.942 15.406-61.37 32.834-18.229 18.229-29.366 40.862-33.414 64.474-3.43 20.012-23.049 32.839-42.745 27.908-103.853-25.996-180.774-119.928-180.775-231.839 0-132.146 106.854-239.001 239-239.001 111.911 0 205.845 76.921 231.841 180.775 4.93 19.696-7.897 39.314-27.909 42.745C40.862-29.365 18.228-18.228 0 0" style="fill:none;stroke:#000;stroke-width:40;stroke-linecap:round;stroke-linejoin:round;stroke-miterlimit:10;stroke-dasharray:none;stroke-opacity:1" transform="translate(398.459 276.933)"/><path d="M0 0c0-13.807 11.193-25 25-25S50-13.807 50 0 38.807 25 25 25 0 13.807 0 0" style="fill:#000;fill-opacity:1;fill-rule:nonzero;stroke:none" transform="translate(233 259)"/><path d="M0 0c0-13.807 11.193-25 25-25S50-13.807 50 0 38.807 25 25 25 0 13.807 0 0" style="fill:#000;fill-opacity:1;fill-rule:nonzero;stroke:none" transform="translate(148 345)"/><path d="M0 0c0-13.807 11.193-25 25-25S50-13.807 50 0 38.807 25 25 25 0 13.807 0 0" style="fill:#000;fill-opacity:1;fill-rule:nonzero;stroke:none" transform="translate(148 174)"/><path d="M0 0c0-13.807 11.193-25 25-25S50-13.807 50 0 38.807 25 25 25 0 13.807 0 0" style="fill:#000;fill-opacity:1;fill-rule:nonzero;stroke:none" transform="translate(328 174)"/><path d="M0 0c0-13.807 11.193-25 25-25S50-13.807 50 0 38.807 25 25 25 0 13.807 0 0" style="fill:#000;fill-opacity:1;fill-rule:nonzero;stroke:none" transform="translate(358 487)"/><path d="M0 0c0-13.807 11.193-25 25-25S50-13.807 50 0 38.807 25 25 25 0 13.807 0 0" style="fill:#000;fill-opacity:1;fill-rule:nonzero;stroke:none" transform="translate(462 457)"/><path d="M0 0c0-13.807 11.193-25 25-25S50-13.807 50 0 38.807 25 25 25 0 13.807 0 0" style="fill:#000;fill-opacity:1;fill-rule:nonzero;stroke:none" transform="translate(438 347)"/></g></svg>