<svg xmlns="http://www.w3.org/2000/svg" xml:space="preserve" viewBox="0 0 512.322 512.322"><path d="m45.325 297.291 168.78 105.603c25.932 16.226 58.181 16.226 84.113 0l168.78-105.603" style="fill:none;stroke:#000;stroke-width:30;stroke-linecap:round;stroke-linejoin:round;stroke-miterlimit:10"/><path d="m45.325 215.031 168.78 105.603c25.932 16.226 58.181 16.226 84.113 0l168.78-105.603" style="fill:none;stroke:#000;stroke-width:30;stroke-linecap:round;stroke-linejoin:round;stroke-miterlimit:10"/><path d="m50.67 136.117 163.435 102.259c25.932 16.226 58.181 16.226 84.113 0l163.435-102.259" style="fill:none;stroke:#000;stroke-width:30;stroke-linecap:round;stroke-linejoin:round;stroke-miterlimit:10"/><path d="M45.326 157.522c0-15.342 7.665-29.546 20.165-37.367l148.614-92.986c25.932-16.226 58.181-16.226 84.113 0l148.615 92.986c12.5 7.821 20.165 22.025 20.165 37.367V354.8c0 15.342-7.665 29.546-20.165 37.367l-148.615 92.986c-25.932 16.226-58.181 16.226-84.113 0L65.491 392.167c-12.5-7.821-20.165-22.025-20.165-37.367z" style="fill:none;stroke:#000;stroke-width:30;stroke-linecap:round;stroke-linejoin:round;stroke-miterlimit:10"/></svg>