<svg id="Layer_2" height="512" viewBox="0 0 24 24" width="512" xmlns="http://www.w3.org/2000/svg" data-name="Layer 2"><path d="m16.424 1.5h-8.848a2.579 2.579 0 0 0 -2.576 2.576v15.848a2.579 2.579 0 0 0 2.576 2.576h8.848a2.579 2.579 0 0 0 2.576-2.576v-15.848a2.579 2.579 0 0 0 -2.576-2.576zm1.576 18.424a1.578 1.578 0 0 1 -1.576 1.576h-8.848a1.578 1.578 0 0 1 -1.576-1.576v-15.848a1.578 1.578 0 0 1 1.576-1.576h8.848a1.578 1.578 0 0 1 1.576 1.576z"/><path d="m14 3.5h-4a.5.5 0 0 0 0 1h4a.5.5 0 0 0 0-1z"/><path d="m12 17.5a1.5 1.5 0 1 0 1.5 1.5 1.5 1.5 0 0 0 -1.5-1.5zm0 2a.5.5 0 1 1 .5-.5.5.5 0 0 1 -.5.5z"/></svg>