<svg xmlns="http://www.w3.org/2000/svg" viewBox="0 0 32 32"><path d="m21.577 14.604-4.024 1.677A2.236 2.236 0 0 0 16 15.654a2.25 2.25 0 1 0 0 4.5 2.248 2.248 0 0 0 2.246-2.211l4.023-1.676a.9.9 0 0 0 .484-1.177.899.899 0 0 0-1.176-.486"/><path d="M16 4.003c-7.665 0-13.9 6.236-13.9 13.9 0 3.711 1.447 7.2 4.074 9.827a.897.897 0 0 0 1.253.013c.006-.005.012-.005.018-.01l1.458-1.459a.901.901 0 0 0-1.273-1.273l-.789.789a11.972 11.972 0 0 1-2.897-6.986h1.119a.9.9 0 0 0 0-1.8H3.945a12.034 12.034 0 0 1 2.896-6.984l.788.788a.897.897 0 0 0 1.273 0 .9.9 0 0 0 0-1.273l-.787-.79A12.03 12.03 0 0 1 15.1 5.849v1.117a.9.9 0 0 0 1.8 0V5.849a12.03 12.03 0 0 1 6.985 2.896l-.788.788a.901.901 0 0 0 1.273 1.273l.788-.788a12.028 12.028 0 0 1 2.896 6.984h-1.117a.9.9 0 0 0 0 1.8h1.119a11.972 11.972 0 0 1-2.897 6.986l-.789-.789a.9.9 0 1 0-1.273 1.273l1.458 1.459.004.001a.896.896 0 0 0 1.266-.005 13.807 13.807 0 0 0 4.074-9.827C29.9 10.239 23.665 4.003 16 4.003"/></svg>