<svg xmlns="http://www.w3.org/2000/svg" xml:space="preserve" viewBox="0 0 682.667 682.667"><defs><clipPath id="a" clipPathUnits="userSpaceOnUse"><path d="M0 512h512V0H0Z"/></clipPath></defs><path d="m0 0 40.167-40.167L120.5 40.167" style="fill:none;stroke:#000;stroke-width:30;stroke-linecap:round;stroke-linejoin:round;stroke-miterlimit:10;stroke-dasharray:none;stroke-opacity:1" transform="matrix(1.33333 0 0 -1.33333 266.355 352.044)"/><g clip-path="url(#a)" transform="matrix(1.33333 0 0 -1.33333 0 682.667)"><path d="M0 0c79.804 0 144.6-64.792 144.6-144.6 0-79.807-64.796-144.599-144.6-144.599-79.804 0-144.6 64.792-144.6 144.599C-144.6-64.792-79.804 0 0 0" style="fill:none;stroke:#000;stroke-width:30;stroke-linecap:round;stroke-linejoin:round;stroke-miterlimit:10;stroke-dasharray:none;stroke-opacity:1" transform="translate(256 400.6)"/><path d="m0 0 9.006 34.221a242.452 242.452 0 0 0 34.471 2.452c11.704 0 23.216-.836 34.47-2.452L86.953 0c25.409-5.389 49.123-15.405 70.22-29.13l30.606 17.855a242.193 242.193 0 0 0 26.109-22.639 242.437 242.437 0 0 0 22.637-26.108l-17.849-30.61c13.72-21.094 23.738-44.808 29.129-70.22l34.221-9.004a242.6 242.6 0 0 0 2.451-34.471 242.6 242.6 0 0 0-2.451-34.471l-34.221-9.005c-5.391-25.413-15.409-49.126-29.129-70.219l17.849-30.61a242.437 242.437 0 0 0-22.637-26.108 242.082 242.082 0 0 0-26.109-22.639l-30.606 17.855c-21.097-13.724-44.811-23.742-70.22-29.13l-9.006-34.221a242.448 242.448 0 0 0-34.47-2.452c-11.705 0-23.217.836-34.471 2.452L0-408.654c-25.409 5.388-49.123 15.405-70.22 29.13l-30.606-17.855a242.082 242.082 0 0 0-26.109 22.639 242.437 242.437 0 0 0-22.637 26.108l17.849 30.61c-13.72 21.093-23.738 44.808-29.129 70.219l-34.221 9.005a242.747 242.747 0 0 0-2.45 34.471c0 11.705.836 23.217 2.45 34.471l34.221 9.004c5.391 25.414 15.409 49.126 29.129 70.22l-17.849 30.61a242.437 242.437 0 0 0 22.637 26.108 242.193 242.193 0 0 0 26.109 22.639L-70.22-29.13C-49.123-15.406-25.409-5.389 0 0" style="fill:none;stroke:#000;stroke-width:30;stroke-linecap:round;stroke-linejoin:round;stroke-miterlimit:10;stroke-dasharray:none;stroke-opacity:1" transform="translate(212.523 460.327)"/></g></svg>