<svg xmlns="http://www.w3.org/2000/svg" xml:space="preserve" viewBox="0 0 682.667 682.667"><defs><clipPath id="a" clipPathUnits="userSpaceOnUse"><path d="M0 512h512V0H0Z"/></clipPath></defs><g clip-path="url(#a)" transform="matrix(1.33333 0 0 -1.33333 0 682.667)"><path d="M0 0h512" style="fill:none;stroke:#000;stroke-width:30;stroke-linecap:butt;stroke-linejoin:miter;stroke-miterlimit:10;stroke-dasharray:none;stroke-opacity:1" transform="translate(0 31)"/><path d="M0 0c0-16.569-13.432-30-30-30-16.568 0-30 13.431-30 30 0 16.569 13.432 30 30 30C-13.432 30 0 16.569 0 0Z" style="fill:none;stroke:#000;stroke-width:30;stroke-linecap:butt;stroke-linejoin:miter;stroke-miterlimit:10;stroke-dasharray:none;stroke-opacity:1" transform="translate(106 211)"/><path d="M0 0c0-16.569-13.432-30-30-30-16.568 0-30 13.431-30 30 0 16.569 13.432 30 30 30C-13.432 30 0 16.569 0 0Z" style="fill:none;stroke:#000;stroke-width:30;stroke-linecap:butt;stroke-linejoin:miter;stroke-miterlimit:10;stroke-dasharray:none;stroke-opacity:1" transform="translate(346 271)"/><path d="M0 0c0-16.569-13.432-30-30-30-16.568 0-30 13.431-30 30 0 16.569 13.432 30 30 30C-13.432 30 0 16.569 0 0Z" style="fill:none;stroke:#000;stroke-width:30;stroke-linecap:butt;stroke-linejoin:miter;stroke-miterlimit:10;stroke-dasharray:none;stroke-opacity:1" transform="translate(466 451)"/><path d="M0 0c0-16.569-13.432-30-30-30-16.568 0-30 13.431-30 30 0 16.569 13.432 30 30 30C-13.432 30 0 16.569 0 0Z" style="fill:none;stroke:#000;stroke-width:30;stroke-linecap:butt;stroke-linejoin:miter;stroke-miterlimit:10;stroke-dasharray:none;stroke-opacity:1" transform="translate(226 391)"/><path d="M0 0v-105" style="fill:none;stroke:#000;stroke-width:30;stroke-linecap:butt;stroke-linejoin:miter;stroke-miterlimit:10;stroke-dasharray:none;stroke-opacity:1" transform="translate(76 136)"/><path d="M0 0v-255" style="fill:none;stroke:#000;stroke-width:30;stroke-linecap:butt;stroke-linejoin:miter;stroke-miterlimit:10;stroke-dasharray:none;stroke-opacity:1" transform="translate(196 286)"/><path d="M0 0v-165" style="fill:none;stroke:#000;stroke-width:30;stroke-linecap:butt;stroke-linejoin:miter;stroke-miterlimit:10;stroke-dasharray:none;stroke-opacity:1" transform="translate(316 196)"/><path d="M0 0v-345" style="fill:none;stroke:#000;stroke-width:30;stroke-linecap:butt;stroke-linejoin:miter;stroke-miterlimit:10;stroke-dasharray:none;stroke-opacity:1" transform="translate(436 376)"/><path d="m0 0 86.715 130.072" style="fill:none;stroke:#000;stroke-width:30;stroke-linecap:butt;stroke-linejoin:miter;stroke-miterlimit:10;stroke-dasharray:none;stroke-opacity:1" transform="translate(92.643 235.964)"/><path d="m0 0 77.574-77.574" style="fill:none;stroke:#000;stroke-width:30;stroke-linecap:butt;stroke-linejoin:miter;stroke-miterlimit:10;stroke-dasharray:none;stroke-opacity:1" transform="translate(217.213 369.787)"/><path d="m0 0 86.715 130.072" style="fill:none;stroke:#000;stroke-width:30;stroke-linecap:butt;stroke-linejoin:miter;stroke-miterlimit:10;stroke-dasharray:none;stroke-opacity:1" transform="translate(332.643 295.964)"/></g></svg>