<svg xmlns="http://www.w3.org/2000/svg" viewBox="0 0 512 512"><path d="M392 135.995c-33.74 0-64.22 13.92-86.02 36.33l-29.06 29.87 31.42 32.29 29.92-30.76c13.63-14.01 32.69-22.73 53.74-22.73 41.35 0 75 33.65 75 75.01 0 41.35-33.65 75-75 75-21.05 0-40.11-8.72-53.74-22.74a13263053.833 13263053.833 0 0 1-132.24-135.94c-21.8-22.41-52.28-36.33-86.02-36.33-66.27 0-120 53.73-120 120.01 0 66.27 53.73 120 120 120 33.74 0 64.22-13.92 86.02-36.33l29.06-29.87-31.42-32.29-29.92 30.75c-13.63 14.02-32.69 22.74-53.74 22.74-41.35 0-75-33.65-75-75 0-41.36 33.65-75.01 75-75.01 21.05 0 40.11 8.72 53.74 22.73l132.24 135.95c21.8 22.41 52.28 36.33 86.02 36.33 66.27 0 120-53.73 120-120 0-66.28-53.73-120.01-120-120.01"/></svg>