<svg xmlns="http://www.w3.org/2000/svg" viewBox="0 0 100 100"><path d="M49.998 56.65a4.58 4.58 0 0 0-2.843 8.167v3.785a2.844 2.844 0 1 0 5.688 0v-3.785a4.58 4.58 0 0 0-2.845-8.167m1.18 6.621a1.11 1.11 0 0 0-.554.963v4.368a.624.624 0 1 1-1.25 0v-4.368c0-.397-.21-.764-.555-.963a2.358 2.358 0 0 1 1.18-4.4 2.36 2.36 0 0 1 1.18 4.4z"/><path d="M93.236 67.688a3.598 3.598 0 0 0-5.565 1.715h-1.76a2.845 2.845 0 0 1-2.507-1.495 5.064 5.064 0 0 0-4.465-2.66l-3.579.02a25.817 25.817 0 0 0-.034-3.017 4.828 4.828 0 0 0 2.38-.929 4.81 4.81 0 0 0 1.57-2.015 2.607 2.607 0 0 1 2.412-1.608h.894a3.592 3.592 0 1 0 0-2.22h-.893a4.823 4.823 0 0 0-4.462 2.974 2.604 2.604 0 0 1-2.152 1.594 25.206 25.206 0 0 0-2.525-7.662l5.649.001a3.92 3.92 0 0 0 3.81-3.071 1.688 1.688 0 0 1 1.64-1.322H88.5a3.594 3.594 0 0 0 5.528 1.797 3.594 3.594 0 0 0-3.221-6.324 3.594 3.594 0 0 0-2.307 2.307h-4.853a3.92 3.92 0 0 0-3.81 3.07 1.687 1.687 0 0 1-1.64 1.323h-6.95a25.626 25.626 0 0 0-1.928-2.573V29.881a19.319 19.319 0 1 0-38.64 0v17.712a25.632 25.632 0 0 0-1.929 2.573H21.8a1.686 1.686 0 0 1-1.64-1.321 3.92 3.92 0 0 0-3.81-3.071H11.5a3.592 3.592 0 1 0 0 2.22h4.853a1.687 1.687 0 0 1 1.64 1.322 3.916 3.916 0 0 0 3.81 3.07h5.65a25.19 25.19 0 0 0-2.526 7.662 2.604 2.604 0 0 1-2.151-1.594 4.82 4.82 0 0 0-4.462-2.974h-.894a3.594 3.594 0 0 0-5.529-1.797 3.591 3.591 0 0 0 0 5.813 3.593 3.593 0 0 0 5.53-1.797h.893a2.608 2.608 0 0 1 2.412 1.609 4.815 4.815 0 0 0 3.95 2.944 25.78 25.78 0 0 0-.035 3.017l-3.585-.02a5.055 5.055 0 0 0-4.458 2.659 2.844 2.844 0 0 1-2.506 1.494H12.33a3.589 3.589 0 0 0-6.98 1.22 3.587 3.587 0 0 0 7.015 1h1.726a5.07 5.07 0 0 0 4.459-2.66 2.844 2.844 0 0 1 2.5-1.494l3.795.021v.001a25.173 25.173 0 0 0 2.417 7.845h-2.127a5.667 5.667 0 0 0-5.403 4.044 3.434 3.434 0 0 1-3.275 2.45h-1.878a3.593 3.593 0 1 0 0 2.219h1.878a5.667 5.667 0 0 0 5.404-4.042 3.43 3.43 0 0 1 3.274-2.45h3.377a25.371 25.371 0 0 0 42.98 0h3.378a3.431 3.431 0 0 1 3.274 2.45 5.666 5.666 0 0 0 5.403 4.043h1.878a3.592 3.592 0 1 0 0-2.22h-1.879a3.43 3.43 0 0 1-3.274-2.45 5.663 5.663 0 0 0-5.404-4.043H72.74a25.183 25.183 0 0 0 2.418-7.847l3.789-.02c1.046 0 2.008.574 2.505 1.495a5.062 5.062 0 0 0 4.458 2.659h1.727a3.598 3.598 0 1 0 5.599-3.935m-7.24-12.471a1.373 1.373 0 1 1 0 2.746 1.373 1.373 0 0 1 0-2.746m5.92-9.706a1.373 1.373 0 1 1 0 2.749 1.373 1.373 0 0 1 0-2.749M8.084 48.256a1.372 1.372 0 1 1 0-2.743 1.372 1.372 0 0 1 0 2.743m5.92 9.705a1.373 1.373 0 1 1 0-2.746 1.373 1.373 0 0 1 0 2.746M8.932 71.932a1.373 1.373 0 1 1 0-2.747 1.373 1.373 0 0 1 0 2.747m2.232 12.38a1.373 1.373 0 1 1 0-2.747 1.373 1.373 0 0 1 0 2.746zm77.672-2.746v-.001a1.372 1.372 0 1 1 0 2.746 1.372 1.372 0 0 1 0-2.745M32.899 29.88A17.123 17.123 0 0 1 50 12.78a17.123 17.123 0 0 1 17.1 17.1v15.414a25.533 25.533 0 0 0-2.982-2.342V29.881a14.118 14.118 0 0 0-28.235 0v13.072a25.601 25.601 0 0 0-2.983 2.342zm28.998 0v11.742a25.347 25.347 0 0 0-23.794 0V29.88a11.897 11.897 0 1 1 23.794 0m4.479 50.543a23.198 23.198 0 0 1-16.377 6.795 23.17 23.17 0 1 1 23.17-23.17 23.196 23.196 0 0 1-6.793 16.375m25.662-8.893a1.372 1.372 0 1 1-.97-2.343 1.372 1.372 0 0 1 .97 2.343"/></svg>