<svg xmlns="http://www.w3.org/2000/svg" viewBox="0 0 100 100"><path d="M49.998 56.65a4.58 4.58 0 00-2.843 8.167v3.785a2.844 2.844 0 105.688 0v-3.785a4.58 4.58 0 00-2.845-8.167zm1.18 6.621a1.11 1.11 0 00-.554.963v4.368a.624.624 0 11-1.25 0v-4.368c0-.397-.21-.764-.555-.963a2.358 2.358 0 011.18-4.4 2.36 2.36 0 011.18 4.4z"/><path d="M93.236 67.688a3.598 3.598 0 00-5.565 1.715h-1.76a2.845 2.845 0 01-2.507-1.495 5.064 5.064 0 00-4.465-2.66l-3.579.02a25.817 25.817 0 00-.034-3.017 4.828 4.828 0 002.38-.929 4.81 4.81 0 001.57-2.015 2.607 2.607 0 012.412-1.608h.894a3.592 3.592 0 100-2.22h-.893a4.823 4.823 0 00-4.462 2.974 2.604 2.604 0 01-2.152 1.594 25.206 25.206 0 00-2.525-7.662l5.649.001a3.92 3.92 0 003.81-3.071 1.688 1.688 0 011.64-1.322H88.5a3.594 3.594 0 005.528 1.797 3.594 3.594 0 00-3.221-6.324 3.594 3.594 0 00-2.307 2.307h-4.853a3.92 3.92 0 00-3.81 3.07 1.687 1.687 0 01-1.64 1.323h-6.95a25.626 25.626 0 00-1.928-2.573V29.881a19.319 19.319 0 10-38.64 0v17.712a25.632 25.632 0 00-1.929 2.573H21.8a1.686 1.686 0 01-1.64-1.321 3.92 3.92 0 00-3.81-3.071H11.5a3.592 3.592 0 100 2.22h4.853a1.687 1.687 0 011.64 1.322 3.916 3.916 0 003.81 3.07h5.65a25.19 25.19 0 00-2.526 7.662 2.604 2.604 0 01-2.151-1.594 4.82 4.82 0 00-4.462-2.974h-.894a3.594 3.594 0 00-5.529-1.797 3.591 3.591 0 000 5.813 3.593 3.593 0 005.53-1.797h.893a2.608 2.608 0 012.412 1.609 4.815 4.815 0 003.95 2.944 25.78 25.78 0 00-.035 3.017l-3.585-.02a5.055 5.055 0 00-4.458 2.659 2.844 2.844 0 01-2.506 1.494H12.33a3.589 3.589 0 00-6.98 1.22 3.587 3.587 0 007.015 1h1.726a5.07 5.07 0 004.459-2.66 2.844 2.844 0 012.5-1.494l3.795.021v.001a25.173 25.173 0 002.417 7.845h-2.127a5.667 5.667 0 00-5.403 4.044 3.434 3.434 0 01-3.275 2.45h-1.878a3.593 3.593 0 100 2.219h1.878a5.667 5.667 0 005.404-4.042 3.43 3.43 0 013.274-2.45h3.377a25.371 25.371 0 0042.98 0h3.378a3.431 3.431 0 013.274 2.45 5.666 5.666 0 005.403 4.043h1.878a3.592 3.592 0 100-2.22h-1.879a3.43 3.43 0 01-3.274-2.45 5.663 5.663 0 00-5.404-4.043H72.74a25.183 25.183 0 002.418-7.847l3.789-.02c1.046 0 2.008.574 2.505 1.495a5.062 5.062 0 004.458 2.659h1.727a3.598 3.598 0 105.599-3.935zm-7.24-12.471a1.373 1.373 0 110 2.746 1.373 1.373 0 010-2.746zm5.92-9.706a1.373 1.373 0 110 2.749 1.373 1.373 0 010-2.749zM8.084 48.256a1.372 1.372 0 110-2.743 1.372 1.372 0 010 2.743zm5.92 9.705a1.373 1.373 0 110-2.746 1.373 1.373 0 010 2.746zM8.932 71.932a1.373 1.373 0 110-2.747 1.373 1.373 0 010 2.747zm2.232 12.38a1.373 1.373 0 110-2.747 1.373 1.373 0 010 2.746zm77.672-2.746v-.001a1.372 1.372 0 110 2.746 1.372 1.372 0 010-2.745zM32.899 29.88A17.123 17.123 0 0150 12.78a17.123 17.123 0 0117.1 17.1v15.414a25.533 25.533 0 00-2.982-2.342V29.881a14.118 14.118 0 00-28.235 0v13.072a25.601 25.601 0 00-2.983 2.342V29.88zm28.998 0v11.742a25.347 25.347 0 00-23.794 0V29.88a11.897 11.897 0 1123.794 0zm4.479 50.543a23.198 23.198 0 01-16.377 6.795 23.17 23.17 0 1123.17-23.17 23.196 23.196 0 01-6.793 16.375zm25.662-8.893a1.372 1.372 0 11-.97-2.343 1.372 1.372 0 01.97 2.343z"/></svg>