<svg xmlns="http://www.w3.org/2000/svg" data-name="Layer 1" viewBox="0 0 512 512"><path d="M464.628 19.882H47.372a32.7 32.7 0 0 0-32.666 32.667v357.965a32.7 32.7 0 0 0 32.666 32.665h332.975l41.415 41.421a25.585 25.585 0 0 0 18.219 7.523A25.589 25.589 0 0 0 458.2 484.6l4.956-4.957a25.793 25.793 0 0 0 0-36.436l-.024-.025h1.5a32.7 32.7 0 0 0 32.666-32.665V52.549a32.7 32.7 0 0 0-32.67-32.667zM47.372 30.934h417.256a21.638 21.638 0 0 1 21.614 21.615v50.782H25.758V52.549a21.638 21.638 0 0 1 21.614-21.615zM358.26 354.257a5.438 5.438 0 0 1 0 7.682L340.5 379.7a5.437 5.437 0 0 1-7.681 0l-17.954-17.953-3.786 2.594a121.751 121.751 0 1 1 31.821-31.823l-2.594 3.786zm3.559 19.752 32.37 32.37-9.251 9.25-32.37-32.369zm93.522 97.817-4.956 4.956a14.772 14.772 0 0 1-20.808 0l-44.2-44.2a1.259 1.259 0 0 1 0-1.755l24.008-24.007a1.261 1.261 0 0 1 1.756 0l44.2 44.2a14.729 14.729 0 0 1 0 20.806zm9.287-39.7h-12.549L418.953 399a12.288 12.288 0 0 0-16.929-.415l-32.951-32.951a16.508 16.508 0 0 0-3-19.192l-11.52-11.521A132.844 132.844 0 1 0 313.481 376L325 387.517a16.508 16.508 0 0 0 19.191 3l32.951 32.951a12.194 12.194 0 0 0-3.178 8.236c0 .143.016.284.021.427H47.372a21.638 21.638 0 0 1-21.614-21.614V114.382h460.484v296.132a21.638 21.638 0 0 1-21.614 21.614zM180.279 69.975a5.526 5.526 0 0 1 5.526-5.525H438.07a5.526 5.526 0 1 1 0 11.051H185.805a5.527 5.527 0 0 1-5.526-5.526zm-41.146 0a5.532 5.532 0 1 1 5.552 5.526h-.027a5.526 5.526 0 0 1-5.525-5.526zm-35.366 0a5.533 5.533 0 1 1 5.552 5.526h-.026a5.527 5.527 0 0 1-5.526-5.526zm-35.365 0a5.533 5.533 0 1 1 5.552 5.525h-.026a5.527 5.527 0 0 1-5.528-5.525zm250.812 117a108.67 108.67 0 1 0 31.829 76.842 108.792 108.792 0 0 0-31.829-76.846zM311.4 332.84a97.62 97.62 0 1 1 28.592-69.027A97.732 97.732 0 0 1 311.4 332.84zm-101.345-91.646L181.5 263.813l28.551 22.619a5.526 5.526 0 0 1-6.863 8.663l-34.018-26.951a5.527 5.527 0 0 1 0-8.663l34.019-26.95a5.526 5.526 0 0 1 6.862 8.663zm106.97 22.619a5.527 5.527 0 0 1-2.095 4.331L280.912 295.1a5.526 5.526 0 1 1-6.863-8.663l28.551-22.624-28.551-22.619a5.526 5.526 0 1 1 6.863-8.663l34.018 26.95a5.527 5.527 0 0 1 2.095 4.332zm-52.98-42.855-32.975 89.53a5.526 5.526 0 0 1-10.371-3.82l32.975-89.529a5.526 5.526 0 1 1 10.371 3.819z"/></svg>