<svg xmlns="http://www.w3.org/2000/svg" width="568" height="568" viewBox="0 -21 426.667 426"><path d="M373.332.332h-320C23.891.367.035 24.227 0 53.668V331c.035 29.441 23.89 53.3 53.332 53.332h320c29.441-.031 53.3-23.89 53.336-53.332V53.668c-.035-29.441-23.895-53.3-53.336-53.336m-320 21.336h320c17.668.02 31.98 14.332 32 32v10.664h-384V53.668c.02-17.668 14.336-31.98 32-32m320 341.332h-320c-17.664-.02-31.98-14.336-32-32V85.668h384V331c-.02 17.664-14.332 31.98-32 32m0 0"/><path d="M74.668 235H160a10.664 10.664 0 0 0 10.668-10.668v-64c0-2.828-1.121-5.543-3.125-7.543-2-2-4.715-3.125-7.543-3.121H74.668A10.66 10.66 0 0 0 64 160.332v64c0 2.832 1.121 5.543 3.121 7.547 2.004 2 4.715 3.121 7.547 3.121m10.664-64h64v42.668h-64zM352 149.668H224c-5.89 0-10.668 4.773-10.668 10.664S218.109 171 224 171h128c5.89 0 10.668-4.777 10.668-10.668s-4.777-10.664-10.668-10.664m0 64H224c-5.89 0-10.668 4.773-10.668 10.664S218.109 235 224 235h128c5.89 0 10.668-4.777 10.668-10.668s-4.777-10.664-10.668-10.664m0 64H74.668c-5.89 0-10.668 4.773-10.668 10.664S68.777 299 74.668 299H352c5.89 0 10.668-4.777 10.668-10.668s-4.777-10.664-10.668-10.664m0 0"/></svg>