<svg height="426pt" viewBox="0 -21 426.66667 426" width="426pt" xmlns="http://www.w3.org/2000/svg"><path d="m373.332031.332031h-320c-29.441406.035157-53.2968748 23.894531-53.332031 53.335938v277.332031c.0351562 29.441406 23.890625 53.300781 53.332031 53.332031h320c29.441407-.03125 53.300781-23.890625 53.335938-53.332031v-277.332031c-.035157-29.441407-23.894531-53.300781-53.335938-53.335938zm-320 21.335938h320c17.667969.019531 31.980469 14.332031 32 32v10.664062h-384v-10.664062c.019531-17.667969 14.335938-31.980469 32-32zm320 341.332031h-320c-17.664062-.019531-31.980469-14.335938-32-32v-245.332031h384v245.332031c-.019531 17.664062-14.332031 31.980469-32 32zm0 0"/><path d="m74.667969 235h85.332031c2.828125 0 5.542969-1.121094 7.542969-3.121094 2.003906-2.003906 3.125-4.714844 3.125-7.546875v-64c0-2.828125-1.121094-5.542969-3.125-7.542969-2-2-4.714844-3.125-7.542969-3.121093h-85.332031c-2.832031-.003907-5.542969 1.121093-7.546875 3.121093-2 2-3.121094 4.714844-3.121094 7.542969v64c0 2.832031 1.121094 5.542969 3.121094 7.546875 2.003906 2 4.714844 3.121094 7.546875 3.121094zm10.664062-64h64v42.667969h-64zm0 0"/><path d="m352 149.667969h-128c-5.890625 0-10.667969 4.773437-10.667969 10.664062s4.777344 10.667969 10.667969 10.667969h128c5.890625 0 10.667969-4.777344 10.667969-10.667969s-4.777344-10.664062-10.667969-10.664062zm0 0"/><path d="m352 213.667969h-128c-5.890625 0-10.667969 4.773437-10.667969 10.664062s4.777344 10.667969 10.667969 10.667969h128c5.890625 0 10.667969-4.777344 10.667969-10.667969s-4.777344-10.664062-10.667969-10.664062zm0 0"/><path d="m352 277.667969h-277.332031c-5.890625 0-10.667969 4.773437-10.667969 10.664062s4.777344 10.667969 10.667969 10.667969h277.332031c5.890625 0 10.667969-4.777344 10.667969-10.667969s-4.777344-10.664062-10.667969-10.664062zm0 0"/></svg>