<svg height="512pt" viewBox="-25 0 512 512.00131" width="512pt" xmlns="http://www.w3.org/2000/svg"><path d="m448.246094 76.5625c-74.503906 0-172.53125-25.140625-207.472656-71.71875-4.648438-5.660156-13.003907-6.476562-18.664063-1.828125-.667969.546875-1.28125 1.160156-1.828125 1.828125-34.945312 46.574219-132.972656 71.71875-207.472656 71.71875-7.074219 0-12.808594 5.734375-12.808594 12.808594v166.488281c0 140.828125 122.292969 225.726563 227.011719 255.640625 2.296875.667969 4.734375.667969 7.03125 0 104.71875-29.914062 227.011719-114.8125 227.011719-255.640625v-166.488281c0-7.074219-5.734376-12.808594-12.808594-12.808594zm-12.808594 179.296875c0 125.019531-109.558594 201.660156-204.910156 230.003906-95.351563-28.34375-204.914063-104.984375-204.914063-230.003906v-153.90625c74.027344-2.503906 161.566407-26.367187 204.914063-69.964844 43.351562 43.597657 130.886718 67.460938 204.914062 69.960938v153.910156zm0 0"/><path d="m179.300781 204.632812v25.613282h-12.808593c-7.074219 0-12.808594 5.734375-12.808594 12.808594v102.453124c0 7.074219 5.734375 12.808594 12.808594 12.808594h128.070312c7.074219 0 12.808594-5.734375 12.808594-12.808594v-102.453124c0-7.074219-5.734375-12.808594-12.808594-12.808594h-12.808594v-25.613282c0-28.292968-22.933594-51.226562-51.226562-51.226562-28.292969 0-51.226563 22.933594-51.226563 51.226562zm102.453125 128.070313h-102.453125v-76.84375h102.453125zm-25.613281-128.070313v25.613282h-51.226563v-25.613282c0-14.144531 11.464844-25.613281 25.613282-25.613281 14.144531 0 25.613281 11.46875 25.613281 25.613281zm0 0"/></svg>