<svg viewBox="0 0 512 512" xmlns="http://www.w3.org/2000/svg"><path d="M464.31 378.88c6.07-6.26 9.82-14.78 9.82-24.16 0-17.1-12.43-31.35-28.73-34.2v-41.99c0-3.31-2.69-6-6-6H262V221.1h76.15c11.95 0 21.67-9.72 21.67-21.67v-92.47c0-11.95-9.72-21.67-21.67-21.67H250.1l-16.15-20.26c-4.12-5.17-10.03-8.01-16.64-8.01h-50.14c-8.26 0-14.98 6.72-14.98 14.98V199.43c0 11.95 9.72 21.67 21.67 21.67H250v51.43H72.59c-3.31 0-6 2.69-6 6v41.99c-16.3 2.85-28.73 17.1-28.73 34.2 0 9.39 3.75 17.91 9.82 24.16C29.22 381.59 15 397.52 15 416.72v32.25c0 3.31 2.69 6 6 6h103.19c3.31 0 6-2.69 6-6v-32.25c0-19.2-14.22-35.14-32.68-37.84 6.07-6.26 9.82-14.78 9.82-24.16 0-17.1-12.43-31.35-28.73-34.2v-35.99H250v36.07c-16.08 3.03-28.28 17.17-28.28 34.12 0 9.39 3.75 17.91 9.82 24.16-18.46 2.7-32.69 18.64-32.69 37.84v32.25c0 3.31 2.69 6 6 6h103.19c3.31 0 6-2.69 6-6v-32.25c0-19.2-14.22-35.14-32.68-37.84 6.07-6.26 9.82-14.78 9.82-24.16 0-17.26-12.66-31.61-29.17-34.28v-35.91h171.41v35.99c-16.3 2.85-28.73 17.1-28.73 34.2 0 9.39 3.75 17.91 9.82 24.16-18.46 2.7-32.68 18.64-32.68 37.84v32.25c0 3.31 2.69 6 6 6H491c3.31 0 6-2.69 6-6v-32.25c0-19.2-14.22-35.13-32.69-37.84zM167.16 69.03h50.14c2.97 0 5.41 1.18 7.26 3.5l10.19 12.78h-70.57v-13.3c0-1.61 1.37-2.98 2.98-2.98zm-2.98 130.41V97.31h173.97c5.33 0 9.67 4.34 9.67 9.67v92.47c0 5.33-4.34 9.67-9.67 9.67h-164.3c-5.33-.02-9.67-4.35-9.67-9.68zm-45.99 217.28v26.25H27v-26.25c0-14.47 11.77-26.25 26.25-26.25h38.7c14.46.01 26.24 11.78 26.24 26.25zm-22.87-62c0 12.53-10.2 22.73-22.73 22.73s-22.73-10.2-22.73-22.73 10.2-22.73 22.73-22.73c12.54 0 22.73 10.2 22.73 22.73zm206.72 62v26.25h-91.19v-26.25c0-14.47 11.77-26.25 26.25-26.25h38.7c14.47.01 26.24 11.78 26.24 26.25zm-22.87-62c0 12.53-10.2 22.73-22.73 22.73s-22.73-10.2-22.73-22.73 10.2-22.73 22.73-22.73c12.54 0 22.73 10.2 22.73 22.73zm160.24-22.73c12.53 0 22.73 10.2 22.73 22.73s-10.2 22.73-22.73 22.73-22.73-10.2-22.73-22.73 10.19-22.73 22.73-22.73zM485 442.97h-91.19v-26.25c0-14.47 11.77-26.25 26.25-26.25h38.7c14.47 0 26.25 11.77 26.25 26.25v26.25z"/></svg>