<svg xmlns="http://www.w3.org/2000/svg" data-name="Layer 1" viewBox="0 0 100 100"><path d="M58.55 38.33a1 1 0 01.28 1.39l-10 15a1 1 0 01-.78.45 1 1 0 01-.77-.36l-5-6a1 1 0 01.13-1.41 1 1 0 011.41.13l4.14 5 9.26-13.89a1 1 0 011.33-.31zM86 61.31a2.2 2.2 0 010 .36V71c0 3-5 4.77-10 5v6c0 3.25-5.67 5-11 5a21.17 21.17 0 01-7.28-1.2 75.4 75.4 0 01-7.68 5 1 1 0 01-1 0C6.82 66.76 18.41 22.18 18.54 21.74a1 1 0 01.59-.67l30-12a1 1 0 01.74 0l30 12a1 1 0 01.59.67 65.47 65.47 0 01.77 25.41C84 48 86 49.37 86 51.31a2.2 2.2 0 010 .36v9.44a1 1 0 010 .2zM73.41 27.1L49.5 17.54 25.59 27.1c-1.47 9-3.38 36.89 23.91 54.7q2.34-1.53 4.46-3.2V62.31a1 1 0 01.08-.4c.42-2.79 5.14-4.38 9.92-4.58v-6a1 1 0 01.08-.4c.4-2.67 4.73-4.23 9.28-4.54a59.9 59.9 0 00.09-19.29zM74 62.2c-.19-1.22-3.64-2.89-9-2.89s-9 1.77-9 3 3.51 3 9 3c5.16 0 8.56-1.57 9-2.77v-.34zm-18 9.91a1 1 0 010 .2c0 1.22 3.51 3 9 3 5.16 0 8.56-1.57 9-2.77v-7.25c-2.13 1.32-5.61 2-9 2s-6.92-.72-9-2.07zm20-7.82c4.62-.18 7.63-1.63 8-2.75v-7.25c-2.13 1.32-5.61 2-9 2s-6.92-.72-9-2.07v3.08c5 .2 10 1.93 10 5a2.2 2.2 0 010 .36zm4-15.44a21.06 21.06 0 00-5-.54c-5.49 0-9 1.77-9 3s3.51 3 9 3c5.16 0 8.56-1.57 9-2.77v-.34c-.14-.78-1.61-1.75-4.06-2.35zm-24.24 36A3.47 3.47 0 0154 82v-.9c-1.3.9-2.6 1.9-4 2.73a1 1 0 01-1.08 0C19.48 65 22.18 35 23.71 26.21a1 1 0 01.62-.76l24.8-9.92a1 1 0 01.74 0l24.8 9.92a1 1 0 01.62.76 61.82 61.82 0 01.07 20.1 24.11 24.11 0 013.92.38 66.13 66.13 0 00-.63-23.95L49.5 11.08 20.35 22.74c-1.1 4.76-8.78 44.05 29.15 66.11 2.17-1.27 4.25-2.62 6.2-4.04zM74 82v-6.71c-2.13 1.32-5.61 2-9 2s-6.92-.72-9-2.07V82c0 .5.59 1.09 1.65 1.61a1 1 0 01.79.35A19 19 0 0065 85c5.45 0 9-1.75 9-3zm10-11v-6.71a17.33 17.33 0 01-8 2v5.82a1 1 0 010 .2 2.2 2.2 0 010 .36V74c4.88-.19 8-1.82 8-3z"/></svg>