<svg xmlns="http://www.w3.org/2000/svg" viewBox="0 0 2048 2048"><path d="M1286.589 1773.991H761.411c-13.255 0-24-10.745-24-24s10.745-24 24-24h525.178c13.255 0 24 10.745 24 24s-10.745 24-24 24zM1024 980.39c-82.396 0-159.86-32.086-218.122-90.349-58.263-58.262-90.349-135.726-90.349-218.122s32.086-159.86 90.349-218.122c58.262-58.262 135.726-90.349 218.122-90.349s159.859 32.087 218.122 90.349c58.262 58.262 90.349 135.727 90.349 218.122 0 82.396-32.087 159.86-90.349 218.122-58.263 58.262-135.726 90.349-218.122 90.349zm0-568.943c-143.624 0-260.471 116.847-260.471 260.471S880.376 932.39 1024 932.39s260.471-116.847 260.471-260.471S1167.624 411.447 1024 411.447z"/><path d="M1024 1067.918c-53.449 0-105.312-10.474-154.148-31.129-47.159-19.946-89.506-48.496-125.866-84.856s-64.91-78.708-84.855-125.866C638.474 777.231 628 725.368 628 671.918s10.474-105.312 31.129-154.148c19.946-47.158 48.496-89.505 84.855-125.866 36.36-36.36 78.708-64.91 125.866-84.855 48.836-20.656 100.699-31.129 154.148-31.129s105.312 10.474 154.148 31.129c47.158 19.946 89.506 48.496 125.865 84.855 36.36 36.36 64.91 78.708 84.856 125.866 20.655 48.836 31.129 100.699 31.129 154.148s-10.474 105.312-31.129 154.148c-19.946 47.158-48.496 89.506-84.856 125.866-36.359 36.36-78.707 64.91-125.865 84.856-48.834 20.656-100.697 31.13-154.146 31.13zm0-743.999c-191.888 0-348 156.112-348 347.999 0 191.888 156.112 348 348 348s347.999-156.112 347.999-348c0-191.887-156.111-347.999-347.999-347.999z"/><path d="M993.053 819.703a23.926 23.926 0 0 1-16.971-7.029L852.298 688.889c-9.373-9.373-9.373-24.569 0-33.941l61.892-61.892c9.373-9.372 24.568-9.372 33.941 0l44.921 44.922 106.813-106.814c9.373-9.372 24.569-9.373 33.94 0l61.896 61.892a23.999 23.999 0 0 1 .001 33.942l-185.68 185.677a23.93 23.93 0 0 1-16.969 7.028zm-89.844-147.785 89.843 89.844 151.738-151.735-27.954-27.952-106.813 106.814c-9.373 9.372-24.568 9.372-33.941 0l-44.921-44.921zM827.06 1577.05H280c-13.255 0-24-10.745-24-24s10.745-24 24-24h547.06c13.255 0 24 10.745 24 24s-10.745 24-24 24z"/><path d="M739.53 1577.05c-13.255 0-24-10.745-24-24v-148.941c0-71.229-57.948-129.177-129.177-129.177h-87.53c-71.229 0-129.177 57.948-129.177 129.177v148.941c0 13.255-10.745 24-24 24s-24-10.745-24-24v-148.941c0-47.154 18.476-91.6 52.025-125.149 33.55-33.551 77.996-52.027 125.152-52.027h87.53c47.156 0 91.603 18.477 125.151 52.025 33.549 33.549 52.025 77.995 52.025 125.151v148.941c.001 13.255-10.744 24-23.999 24z"/><path d="M544 1264.954c-66.168 0-120-53.832-120-120s53.832-120 120-120 120 53.832 120 120-53.832 120-120 120zm0-192c-39.701 0-72 32.299-72 72s32.299 72 72 72 72-32.299 72-72-32.299-72-72-72zm-96 504c-13.255 0-24-10.745-24-24v-96c0-13.255 10.745-24 24-24s24 10.745 24 24v96c0 13.255-10.745 24-24 24zm192 0c-13.255 0-24-10.745-24-24v-96c0-13.255 10.745-24 24-24s24 10.745 24 24v96c0 13.255-10.745 24-24 24zm1128 .096h-547.06c-13.255 0-24-10.745-24-24s10.745-24 24-24H1768c13.255 0 24 10.745 24 24s-10.745 24-24 24z"/><path d="M1680.471 1577.05c-13.255 0-24-10.745-24-24v-148.941c0-71.229-57.948-129.177-129.177-129.177h-87.53c-71.229 0-129.177 57.948-129.177 129.177v148.941c0 13.255-10.745 24-24 24s-24-10.745-24-24v-148.941c0-47.154 18.477-91.6 52.024-125.149 33.55-33.551 77.997-52.027 125.152-52.027h87.53c47.156 0 91.603 18.477 125.151 52.025s52.025 77.995 52.025 125.151v148.941c.002 13.255-10.743 24-23.998 24z"/><path d="M1484.94 1264.954c-66.168 0-120-53.832-120-120s53.832-120 120-120 120 53.832 120 120-53.832 120-120 120zm0-192c-39.701 0-72 32.299-72 72s32.299 72 72 72 72-32.299 72-72-32.298-72-72-72zm-96 504c-13.255 0-24-10.745-24-24v-96c0-13.255 10.745-24 24-24s24 10.745 24 24v96c0 13.255-10.745 24-24 24zm192 0c-13.255 0-24-10.745-24-24v-96c0-13.255 10.745-24 24-24s24 10.745 24 24v96c0 13.255-10.745 24-24 24zM1220.941 1768.954c-13.255 0-24-10.745-24-24v-148.941c0-71.229-57.948-129.177-129.177-129.177h-87.529c-71.229 0-129.177 57.948-129.177 129.177v148.941c0 13.255-10.745 24-24 24s-24-10.745-24-24v-148.941c0-47.154 18.476-91.6 52.025-125.149 33.549-33.551 77.996-52.027 125.152-52.027h87.529c47.156 0 91.603 18.477 125.151 52.025s52.025 77.995 52.025 125.151v148.941c.001 13.255-10.744 24-23.999 24z"/><path d="M1025.411 1456.858c-66.168 0-120-53.832-120-120s53.832-120 120-120 120 53.832 120 120-53.832 120-120 120zm0-192c-39.701 0-72 32.299-72 72s32.299 72 72 72 72-32.299 72-72-32.299-72-72-72zm-96 504c-13.255 0-24-10.745-24-24v-96c0-13.255 10.745-24 24-24s24 10.745 24 24v96c0 13.255-10.745 24-24 24zm192 0c-13.255 0-24-10.745-24-24v-96c0-13.255 10.745-24 24-24s24 10.745 24 24v96c0 13.255-10.745 24-24 24z"/></svg>