<svg xmlns="http://www.w3.org/2000/svg" xmlns:xlink="http://www.w3.org/1999/xlink" version="1.1" x="0px" y="0px" viewBox="0 0 64 64" style="enable-background:new 0 0 64 64;" xml:space="preserve"><g><path d="M8.2700195,33.6899414c0.3798828,0,0.7800293-0.1601562,1.0600586-0.4399414l3.5400391-3.5302734l-0.0800781-0.2294922   c-0.0100098-0.0205078-0.7600098-2.300293,1.0500488-3.3803711c1.6699219-0.9897461,4.75,1.1098633,5.7897949,2.0102539   l0.0300293,0.0297852l0.2302246,0.2001953l4.6999512-4.7001953l-0.1501465-0.25l-0.0100098-0.0097656   c-4.1599121-6.9301758-1.3398438-10.9702148,5.6101074-17.9204102l0.2600098-0.2597656l-1.8701172-1.8798828l-0.25,0.1298828   C19.0500488,8.3798828,9.8000488,17.5800781,9.7099609,17.6699219l-0.1899414,0.1899414l0.1201172,0.2402344   c0.0097656,0.0297852,1.2797852,2.6000977,0.0698242,3.8100586c-1.1098633,1.1098633-2.1799316,0.1196289-2.3000488,0   l-0.2600098-0.2602539l-4.7299805,4.6201172c-0.3798828,0.3798828-0.5400391,1.0898438-0.3398438,1.6000977   C3.0900879,30.5,5.1899414,32.6000977,7.8200684,33.6098633C7.9599609,33.6699219,8.1201172,33.6899414,8.2700195,33.6899414z"></path><path d="M36.8400879,35.5600586l-5.3601074-5.2602539l-5.5500488-5.4399414l-4.7897949,4.7900391l5.3398438,5.4599609   l5.4599609,5.5703125l18.9501953,19.3598633l0.1398926,0.0898438C51.0600586,60.1401367,51.3701172,60.25,51.8598633,60.25   c0.75,0,1.920166-0.25,3.170166-1.5c2.0700684-2.0698242,1.4099121-3.9199219,1.3798828-4L36.8400879,35.5600586z"></path><path d="M61.6899414,12.0400391l-0.1699219-0.6298828l-5.5500488,5.5498047   c-0.5700684,0.5698242-1.6398926,0.7402344-2.3601074,0.0200195l-3.4897461-3.5   c-0.4001465-0.3999023-0.4799805-0.8398438-0.4799805-1.1401367c-0.0102539-0.449707,0.1799316-0.8999023,0.5-1.2197266   l5.5397949-5.5400391l-0.6298828-0.1699219C51.8500977,4.5400391,48.3701172,5.4697266,46,7.8300781   c-1.8100586,1.8100586-2.9199219,4.449707-2.9499512,7.0498047c-0.0200195,2.8100586-0.1799316,4.6499023-2.2199707,6.4702148   l-8.0500488,7.7099609l5.3100586,5.199707L45.7600098,26.25c1.8200684-2.0600586,3.6398926-2.1801758,6.4499512-2.2099609   c2.5900879-0.0200195,5.2299805-1.1201172,7.0500488-2.9501953C61.6201172,18.7402344,62.5500488,15.2700195,61.6899414,12.0400391   z"></path><path d="M7.8798828,52.9101562C7.0100098,53.75,6.5200195,54.8798828,6.5100098,56.0898438   c0,1.2099609,0.4599609,2.3300781,1.3100586,3.1801758c0.8498535,0.8500977,1.9699707,1.3100586,3.1599121,1.3100586h0.0500488   c1.1999512-0.0102539,2.329834-0.5,3.1599121-1.3701172l16.5-17.2299805l-5.5100098-5.6298828L7.8798828,52.9101562z    M12.847168,57.0874023c-0.7885742,0.7768555-2.0571289,0.7768555-2.8344727,0   c-0.7768555-0.7890625-0.7768555-2.0576172,0-2.8344727c0.7773438-0.7773438,2.0458984-0.7773438,2.8344727,0   C13.6242676,55.0297852,13.6242676,56.2983398,12.847168,57.0874023z"></path></g></svg>