<svg xmlns="http://www.w3.org/2000/svg" viewBox="0 0 64 64"><path d="M8.27 33.69c.38 0 .78-.16 1.06-.44l3.54-3.53-.08-.23c-.01-.02-.76-2.3 1.05-3.38 1.67-.99 4.75 1.11 5.79 2.01l.03.03.23.2 4.7-4.7-.15-.25-.01-.01c-4.16-6.93-1.34-10.97 5.61-17.92l.26-.26-1.87-1.88-.25.13C19.05 8.38 9.8 17.58 9.71 17.67l-.19.19.12.24c.01.03 1.28 2.6.07 3.81-1.11 1.11-2.18.12-2.3 0l-.26-.26-4.73 4.62c-.38.38-.54 1.09-.34 1.6 1.01 2.63 3.11 4.73 5.74 5.74.14.06.3.08.45.08zm28.57 1.87-5.36-5.26-5.55-5.44-4.79 4.79 5.34 5.46 5.46 5.57 18.95 19.36.14.09c.03.01.34.12.83.12.75 0 1.92-.25 3.17-1.5 2.07-2.07 1.41-3.92 1.38-4L36.84 35.56zm24.85-23.52-.17-.63-5.55 5.55c-.57.57-1.64.74-2.36.02l-3.49-3.5c-.4-.4-.48-.84-.48-1.14-.01-.45.18-.9.5-1.22l5.54-5.54-.63-.17c-3.2-.87-6.68.06-9.05 2.42-1.81 1.81-2.92 4.45-2.95 7.05-.02 2.81-.18 4.65-2.22 6.47l-8.05 7.71 5.31 5.2 7.67-8.01c1.82-2.06 3.64-2.18 6.45-2.21 2.59-.02 5.23-1.12 7.05-2.95a9.393 9.393 0 0 0 2.43-9.05zM7.88 52.91a4.444 4.444 0 0 0-.06 6.36c.85.85 1.97 1.31 3.16 1.31h.05a4.4 4.4 0 0 0 3.16-1.37l16.5-17.23-5.51-5.63-17.3 16.56zm4.967 4.177a2.015 2.015 0 0 1-2.834 0 2.015 2.015 0 0 1 0-2.834 2.014 2.014 0 0 1 2.834 0 2.015 2.015 0 0 1 0 2.834z"/></svg>