<svg fill="none" height="512" viewBox="0 0 64 64" width="512" xmlns="http://www.w3.org/2000/svg"><path d="m56.4 47.6-6-6c-.8-.8-2-.8-2.8 0s-.8 2 0 2.8l2.6 2.6h-31.7c-3.6 0-6.5-2.9-6.5-6.5s2.9-6.5 6.5-6.5h27c5.8 0 10.5-4.7 10.5-10.5s-4.7-10.5-10.5-10.5h-22.8c-.9-3.4-4-6-7.7-6-4.4 0-8 3.6-8 8s3.6 8 8 8c3.7 0 6.8-2.6 7.7-6h22.8c3.6 0 6.5 2.9 6.5 6.5s-2.9 6.5-6.5 6.5h-27c-5.8 0-10.5 4.7-10.5 10.5s4.7 10.5 10.5 10.5h31.7l-2.6 2.6c-.8.8-.8 2 0 2.8.4.4.9.6 1.4.6s1-.2 1.4-.6l6-6c.8-.8.8-2 0-2.8zm-41.4-28.6c-2.2 0-4-1.8-4-4s1.8-4 4-4 4 1.8 4 4-1.8 4-4 4z" fill="rgb(0,0,0)"/></svg>